<svg xmlns="http://www.w3.org/2000/svg" viewBox="0 0 48 48"><title>03-Implant</title><g id="_03-Implant" data-name="03-Implant"><polygon points="30 22 30 28 24 34 21 31 30 22" style="fill:#96e8ff"/><polygon points="30 16 18 28 18 22 24 16 30 16" style="fill:#96e8ff"/><polygon points="30 20 30 22 21 31 18 28 30 16 30 20" style="fill:#19cffc"/><polygon points="24 16 18 22 18 20 18 16 24 16" style="fill:#19cffc"/><polygon points="37 12 37 16 30 16 24 16 18 16 11 16 11 12 37 12" style="fill:#06ccab"/><polygon points="37 14 37 16 30 16 24 16 18 16 11 16 11 14 37 14" style="fill:#0f9887"/><polygon points="18 22 18 28 21 31 24 34 30 28 30 22 30 20 40 20 40 29 37 32 34 47 30 47 24 38 18 47 14 47 11 32 8 29 8 20 18 20 18 22" style="fill:#f2f6fc"/><polygon points="14 28 17 31 20 34 22 32 21 31 18 28 18 22 18 20 14 20 14 22 14 28" style="fill:#cdd2e1"/><polygon points="36 20 36 29 33 32 30 47 34 47 37 32 40 29 40 20 36 20" style="fill:#cdd2e1"/><polygon points="40 5 40 12 37 12 11 12 8 12 8 5 12 1 21 1 24 4 27 1 36 1 40 5" style="fill:#f2f6fc"/><polygon points="36 1 32 1 36 5 36 12 37 12 40 12 40 5 36 1" style="fill:#cdd2e1"/><path d="M40.707,4.293l-4-4A1,1,0,0,0,36,0H27a1,1,0,0,0-.707.293L24,2.586,21.707.293A1,1,0,0,0,21,0H12a1,1,0,0,0-.707.293l-4,4A1,1,0,0,0,7,5v7a1,1,0,0,0,1,1h2v3a1,1,0,0,0,1,1h6V28a1,1,0,0,0,.293.707l6,6a1,1,0,0,0,1.414,0l6-6A1,1,0,0,0,31,28V17h6a1,1,0,0,0,1-1V13h2a1,1,0,0,0,1-1V5A1,1,0,0,0,40.707,4.293ZM21.586,17,19,19.586V17ZM29,21.586l-8,8L19.414,28,29,18.414Zm-5,11L22.414,31,29,24.414v3.172Zm-5-7V22.414L24.414,17h3.172ZM36,15H12V13H36Zm3-4H9V5.414L12.414,2h8.172l2.707,2.707a1,1,0,0,0,1.414,0L27.414,2h8.172L39,5.414Z"/><path d="M40,19H33v2h6v7.586l-2.707,2.707a.991.991,0,0,0-.273.511L33.18,46H30.535l-5.7-8.555a1.039,1.039,0,0,0-1.664,0L17.465,46H14.82L11.98,31.8a.991.991,0,0,0-.273-.511L9,28.586V21h6V19H8a1,1,0,0,0-1,1v9a1,1,0,0,0,.293.707l2.786,2.786L13.02,47.2A1,1,0,0,0,14,48h4a1,1,0,0,0,.832-.445L24,39.8l5.168,7.752A1,1,0,0,0,30,48h4a1,1,0,0,0,.98-.8l2.941-14.7,2.786-2.786A1,1,0,0,0,41,29V20A1,1,0,0,0,40,19Z"/><rect x="35" y="7" width="2" height="2"/><rect x="24" y="7" width="9" height="2"/></g></svg>