<?xml version="1.0" encoding="UTF-8"?>
<svg xmlns="http://www.w3.org/2000/svg" version="1.1" viewBox="0 0 850.39 850.39">
  <!-- Generator: Adobe Illustrator 29.5.1, SVG Export Plug-In . SVG Version: 2.1.0 Build 141)  -->
  <defs>
    <style>
      .st0 {
        fill: #533443;
      }

      .st1 {
        fill: #402431;
      }
    </style>
  </defs>
  <g id="base">
    <rect class="st1" y=".54" width="850.39" height="850.39"/>
  </g>
  <g id="pattern">
    <g>
      <path class="st0" d="M438.31,56.79c.28-.95.57-2,.87-3.15.3-1.14.63-2.62.98-4.41.31,1.62.62,3.03.93,4.23.3,1.2.61,2.35.93,3.44l5.97,20.41h7.46l6.13-20.41c.32-1.09.63-2.22.93-3.36.3-1.14.61-2.58.93-4.31.28,1.69.57,3.13.85,4.31.28,1.18.58,2.3.9,3.36l6.13,20.41h7.04l-11.53-38.65h-.21L478.35,0h-6.88l-6.24,20.52c-.28.95-.57,2-.87,3.15-.3,1.14-.63,2.62-.98,4.41-.31-1.62-.62-3.03-.93-4.23-.3-1.2-.61-2.35-.93-3.44l-5.97-20.41h-7.46l-6.13,20.41c-.32,1.09-.63,2.22-.93,3.36-.3,1.14-.61,2.58-.93,4.31-.28-1.69-.57-3.13-.85-4.31-.28-1.18-.58-2.3-.9-3.36l-6.13-20.41h-7.04l11.53,38.65h.21l-11.74,38.65h6.88l6.24-20.52ZM451.8,10.53l8.25,28.13h.16l-8.46,28.13-8.25-28.13h-.16l8.46-28.13Z"/>
      <path class="st0" d="M544.61,56.79c.28-.95.57-2,.87-3.15.3-1.14.63-2.62.98-4.41.31,1.62.62,3.03.93,4.23.3,1.2.61,2.35.93,3.44l5.97,20.41h7.46l6.13-20.41c.32-1.09.63-2.22.93-3.36.3-1.14.61-2.58.93-4.31.28,1.69.57,3.13.85,4.31.28,1.18.58,2.3.9,3.36l6.13,20.41h7.04l-11.53-38.65h-.21l11.74-38.65h-6.88l-6.24,20.52c-.28.95-.57,2-.87,3.15-.3,1.14-.63,2.62-.98,4.41-.31-1.62-.62-3.03-.93-4.23-.3-1.2-.61-2.35-.93-3.44l-5.97-20.41h-7.46l-6.13,20.41c-.32,1.09-.63,2.22-.93,3.36-.3,1.14-.61,2.58-.93,4.31-.28-1.69-.57-3.13-.85-4.31-.28-1.18-.58-2.3-.9-3.36l-6.13-20.41h-7.04l11.53,38.65h.21l-11.74,38.65h6.88l6.24-20.52ZM558.1,10.53l8.25,28.13h.16l-8.46,28.13-8.25-28.13h-.16l8.46-28.13Z"/>
      <path class="st0" d="M478.35,154.62h7.04l6.13-20.41c.32-1.06.62-2.18.9-3.36.28-1.18.56-2.62.85-4.31.31,1.73.62,3.16.93,4.31.3,1.14.61,2.27.93,3.36l6.13,20.41h7.46l5.97-20.41c.32-1.09.63-2.24.93-3.44.3-1.2.61-2.61.93-4.23.35,1.8.68,3.27.98,4.41.3,1.14.59,2.19.87,3.15l6.24,20.52h6.88l-11.74-38.65,11.74-38.65h-6.88l-6.24,20.52c-.28.95-.57,2-.87,3.15-.3,1.14-.63,2.62-.98,4.41-.31-1.62-.62-3.03-.93-4.23-.3-1.2-.61-2.35-.93-3.44l-5.97-20.41h-7.46l-6.13,20.41c-.32,1.09-.63,2.22-.93,3.36-.3,1.14-.61,2.58-.93,4.31-.28-1.69-.57-3.13-.85-4.31-.28-1.18-.58-2.3-.9-3.36l-6.13-20.41h-7.04l11.53,38.65-11.53,38.65ZM504.95,87.83l8.25,28.13-8.25,28.13-8.46-28.13,8.46-28.13Z"/>
      <path class="st0" d="M372.05,154.62h7.04l6.13-20.41c.32-1.06.62-2.18.9-3.36.28-1.18.56-2.62.85-4.31.31,1.73.62,3.16.93,4.31.3,1.14.61,2.27.93,3.36l6.13,20.41h7.46l5.97-20.41c.32-1.09.63-2.24.93-3.44.3-1.2.61-2.61.93-4.23.35,1.8.68,3.27.98,4.41.3,1.14.59,2.19.87,3.15l6.24,20.52h6.88l-11.74-38.65,11.74-38.65h-6.88l-6.24,20.52c-.28.95-.57,2-.87,3.15-.3,1.14-.63,2.62-.98,4.41-.31-1.62-.62-3.03-.93-4.23-.3-1.2-.61-2.35-.93-3.44l-5.97-20.41h-7.46l-6.13,20.41c-.32,1.09-.63,2.22-.93,3.36-.3,1.14-.61,2.58-.93,4.31-.28-1.69-.57-3.13-.85-4.31-.28-1.18-.58-2.3-.9-3.36l-6.13-20.41h-7.04l11.53,38.65-11.53,38.65ZM398.65,87.83l8.25,28.13-8.25,28.13-8.46-28.13,8.46-28.13Z"/>
      <path class="st0" d="M543.03,193.27l-11.53,38.65h7.04l6.13-20.41c.32-1.06.62-2.18.9-3.36.28-1.18.56-2.62.85-4.31.31,1.73.62,3.16.93,4.31.3,1.14.61,2.27.93,3.36l6.13,20.41h7.46l5.97-20.41c.32-1.09.63-2.24.93-3.44.3-1.2.61-2.61.93-4.23.35,1.8.68,3.27.98,4.41.3,1.14.59,2.19.87,3.15l6.24,20.52h6.88l-11.74-38.65h.21l11.53-38.65h-7.04l-6.13,20.41c-.32,1.06-.62,2.18-.9,3.36-.28,1.18-.56,2.62-.85,4.31-.31-1.73-.62-3.16-.93-4.31-.3-1.14-.61-2.27-.93-3.36l-6.13-20.41h-7.46l-5.97,20.41c-.32,1.09-.63,2.24-.93,3.44-.3,1.2-.61,2.61-.93,4.23-.35-1.8-.68-3.27-.98-4.41-.3-1.14-.59-2.19-.87-3.15l-6.24-20.52h-6.88l11.74,38.65h-.21ZM549.8,193.27l8.25-28.13,8.46,28.13h-.16l-8.25,28.13-8.46-28.13h.16Z"/>
      <path class="st0" d="M436.73,193.27l-11.53,38.65h7.04l6.13-20.41c.32-1.06.62-2.18.9-3.36.28-1.18.56-2.62.85-4.31.31,1.73.62,3.16.93,4.31.3,1.14.61,2.27.93,3.36l6.13,20.41h7.46l5.97-20.41c.32-1.09.63-2.24.93-3.44.3-1.2.61-2.61.93-4.23.35,1.8.68,3.27.98,4.41.3,1.14.59,2.19.87,3.15l6.24,20.52h6.88l-11.74-38.65h.21l11.53-38.65h-7.04l-6.13,20.41c-.32,1.06-.62,2.18-.9,3.36-.28,1.18-.56,2.62-.85,4.31-.31-1.73-.62-3.16-.93-4.31-.3-1.14-.61-2.27-.93-3.36l-6.13-20.41h-7.46l-5.97,20.41c-.32,1.09-.63,2.24-.93,3.44-.3,1.2-.61,2.61-.93,4.23-.35-1.8-.68-3.27-.98-4.41-.3-1.14-.59-2.19-.87-3.15l-6.24-20.52h-6.88l11.74,38.65h-.21ZM443.5,193.27l8.25-28.13,8.46,28.13h-.16l-8.25,28.13-8.46-28.13h.16Z"/>
      <path class="st0" d="M478.35,309.23h6.88l6.24-20.52c.28-.95.57-2,.87-3.15.3-1.14.63-2.62.98-4.41.31,1.62.62,3.03.93,4.23.3,1.2.61,2.35.93,3.44l5.97,20.41h7.46l6.13-20.41c.32-1.09.63-2.22.93-3.36.3-1.14.61-2.58.93-4.31.28,1.69.57,3.13.85,4.31.28,1.18.58,2.3.9,3.36l6.13,20.41h7.04l-11.53-38.65,11.53-38.65h-7.04l-6.13,20.41c-.32,1.06-.62,2.18-.9,3.36-.28,1.18-.56,2.62-.85,4.31-.31-1.73-.62-3.16-.93-4.31-.3-1.14-.61-2.27-.93-3.36l-6.13-20.41h-7.46l-5.97,20.41c-.32,1.09-.63,2.24-.93,3.44-.3,1.2-.61,2.61-.93,4.23-.35-1.8-.68-3.27-.98-4.41-.3-1.14-.59-2.19-.87-3.15l-6.24-20.52h-6.88l11.74,38.65-11.74,38.65ZM504.9,242.45l8.46,28.13-8.46,28.13-8.25-28.13,8.25-28.13Z"/>
      <path class="st0" d="M584.65,309.23h6.88l6.24-20.52c.28-.95.57-2,.87-3.15.3-1.14.63-2.62.98-4.41.31,1.62.62,3.03.93,4.23.3,1.2.61,2.35.93,3.44l5.97,20.41h7.46l6.13-20.41c.32-1.09.63-2.22.93-3.36.3-1.14.61-2.58.93-4.31.28,1.69.57,3.13.85,4.31.28,1.18.58,2.3.9,3.36l6.13,20.41h7.04l-11.53-38.65,11.53-38.65h-7.04l-6.13,20.41c-.32,1.06-.62,2.18-.9,3.36-.28,1.18-.56,2.62-.85,4.31-.31-1.73-.62-3.16-.93-4.31-.3-1.14-.61-2.27-.93-3.36l-6.13-20.41h-7.46l-5.97,20.41c-.32,1.09-.63,2.24-.93,3.44-.3,1.2-.61,2.61-.93,4.23-.35-1.8-.68-3.27-.98-4.41-.3-1.14-.59-2.19-.87-3.15l-6.24-20.52h-6.88l11.74,38.65-11.74,38.65ZM611.19,242.45l8.46,28.13-8.46,28.13-8.25-28.13,8.25-28.13Z"/>
      <path class="st0" d="M650.91,56.79c.28-.95.57-2,.87-3.15.3-1.14.63-2.62.98-4.41.31,1.62.62,3.03.93,4.23.3,1.2.61,2.35.93,3.44l5.97,20.41h7.46l6.13-20.41c.32-1.09.63-2.22.93-3.36.3-1.14.61-2.58.93-4.31.28,1.69.57,3.13.85,4.31.28,1.18.58,2.3.9,3.36l6.13,20.41h7.04l-11.53-38.65h-.21l11.74-38.65h-6.88l-6.24,20.52c-.28.95-.57,2-.87,3.15-.3,1.14-.63,2.62-.98,4.41-.31-1.62-.62-3.03-.93-4.23-.3-1.2-.61-2.35-.93-3.44l-5.97-20.41h-7.46l-6.13,20.41c-.32,1.09-.63,2.22-.93,3.36-.3,1.14-.61,2.58-.93,4.31-.28-1.69-.57-3.13-.85-4.31-.28-1.18-.58-2.3-.9-3.36l-6.13-20.41h-7.04l11.53,38.65h.21l-11.74,38.65h6.88l6.24-20.52ZM664.4,10.53l8.25,28.13h.16l-8.46,28.13-8.25-28.13h-.16l8.46-28.13Z"/>
      <path class="st0" d="M757.21,56.79c.28-.95.57-2,.87-3.15.3-1.14.63-2.62.98-4.41.31,1.62.62,3.03.93,4.23.3,1.2.61,2.35.93,3.44l5.97,20.41h7.46l6.13-20.41c.32-1.09.63-2.22.93-3.36.3-1.14.61-2.58.93-4.31.28,1.69.57,3.13.85,4.31.28,1.18.58,2.3.9,3.36l6.13,20.41h7.04l-11.53-38.65h-.21l11.74-38.65h-6.88l-6.24,20.52c-.28.95-.57,2-.87,3.15-.3,1.14-.63,2.62-.98,4.41-.31-1.62-.62-3.03-.93-4.23-.3-1.2-.61-2.35-.93-3.44l-5.97-20.41h-7.46l-6.13,20.41c-.32,1.09-.63,2.22-.93,3.36-.3,1.14-.61,2.58-.93,4.31-.28-1.69-.57-3.13-.85-4.31-.28-1.18-.58-2.3-.9-3.36l-6.13-20.41h-7.04l11.53,38.65h.21l-11.74,38.65h6.88l6.24-20.52ZM770.7,10.53l8.25,28.13h.16l-8.46,28.13-8.25-28.13h-.16l8.46-28.13Z"/>
      <path class="st0" d="M784.08,175.03c-.32,1.06-.62,2.18-.9,3.36-.28,1.18-.56,2.62-.85,4.31-.31-1.73-.62-3.16-.93-4.31-.3-1.14-.61-2.27-.93-3.36l-6.13-20.41h-7.46l-5.97,20.41c-.32,1.09-.63,2.24-.93,3.44-.3,1.2-.61,2.61-.93,4.23-.35-1.8-.68-3.27-.98-4.41-.3-1.14-.59-2.19-.87-3.15l-6.24-20.52h-6.88l11.74,38.65h-.21l-11.53,38.65h7.04l6.13-20.41c.32-1.06.62-2.18.9-3.36.28-1.18.56-2.62.85-4.31.31,1.73.62,3.16.93,4.31.3,1.14.61,2.27.93,3.36l6.13,20.41h7.46l5.97-20.41c.32-1.09.63-2.24.93-3.44.3-1.2.61-2.61.93-4.23.35,1.8.68,3.27.98,4.41.3,1.14.59,2.19.87,3.15l6.24,20.52h6.88l-11.74-38.65h.21l11.53-38.65h-7.04l-6.13,20.41ZM778.95,193.27l-8.25,28.13-8.46-28.13h.16l8.25-28.13,8.46,28.13h-.16Z"/>
      <path class="st0" d="M690.94,154.62h7.04l6.13-20.41c.32-1.06.62-2.18.9-3.36.28-1.18.56-2.62.85-4.31.31,1.73.62,3.16.93,4.31.3,1.14.61,2.27.93,3.36l6.13,20.41h7.46l5.97-20.41c.32-1.09.63-2.24.93-3.44.3-1.2.61-2.61.93-4.23.35,1.8.68,3.27.98,4.41.3,1.14.59,2.19.87,3.15l6.24,20.52h6.88l-11.74-38.65,11.74-38.65h-6.88l-6.24,20.52c-.28.95-.57,2-.87,3.15-.3,1.14-.63,2.62-.98,4.41-.31-1.62-.62-3.03-.93-4.23-.3-1.2-.61-2.35-.93-3.44l-5.97-20.41h-7.46l-6.13,20.41c-.32,1.09-.63,2.22-.93,3.36-.3,1.14-.61,2.58-.93,4.31-.28-1.69-.57-3.13-.85-4.31-.28-1.18-.58-2.3-.9-3.36l-6.13-20.41h-7.04l11.53,38.65-11.53,38.65ZM717.55,87.83l8.25,28.13-8.25,28.13-8.46-28.13,8.46-28.13Z"/>
      <path class="st0" d="M584.65,154.62h7.04l6.13-20.41c.32-1.06.62-2.18.9-3.36.28-1.18.56-2.62.85-4.31.31,1.73.62,3.16.93,4.31.3,1.14.61,2.27.93,3.36l6.13,20.41h7.46l5.97-20.41c.32-1.09.63-2.24.93-3.44.3-1.2.61-2.61.93-4.23.35,1.8.68,3.27.98,4.41.3,1.14.59,2.19.87,3.15l6.24,20.52h6.88l-11.74-38.65,11.74-38.65h-6.88l-6.24,20.52c-.28.95-.57,2-.87,3.15-.3,1.14-.63,2.62-.98,4.41-.31-1.62-.62-3.03-.93-4.23-.3-1.2-.61-2.35-.93-3.44l-5.97-20.41h-7.46l-6.13,20.41c-.32,1.09-.63,2.22-.93,3.36-.3,1.14-.61,2.58-.93,4.31-.28-1.69-.57-3.13-.85-4.31-.28-1.18-.58-2.3-.9-3.36l-6.13-20.41h-7.04l11.53,38.65-11.53,38.65ZM611.25,87.83l8.25,28.13-8.25,28.13-8.46-28.13,8.46-28.13Z"/>
      <path class="st0" d="M730.93,252.33c-.32,1.06-.62,2.18-.9,3.36-.28,1.18-.56,2.62-.85,4.31-.31-1.73-.62-3.16-.93-4.31-.3-1.14-.61-2.27-.93-3.36l-6.13-20.41h-7.46l-5.97,20.41c-.32,1.09-.63,2.24-.93,3.44-.3,1.2-.61,2.61-.93,4.23-.35-1.8-.68-3.27-.98-4.41-.3-1.14-.59-2.19-.87-3.15l-6.24-20.52h-6.88l11.74,38.65-11.74,38.65h6.88l6.24-20.52c.28-.95.57-2,.87-3.15.3-1.14.63-2.62.98-4.41.31,1.62.62,3.03.93,4.23.3,1.2.61,2.35.93,3.44l5.97,20.41h7.46l6.13-20.41c.32-1.09.63-2.22.93-3.36.3-1.14.61-2.58.93-4.31.28,1.69.57,3.13.85,4.31.28,1.18.58,2.3.9,3.36l6.13,20.41h7.04l-11.53-38.65,11.53-38.65h-7.04l-6.13,20.41ZM717.49,298.71l-8.25-28.13,8.25-28.13,8.46,28.13-8.46,28.13Z"/>
      <path class="st0" d="M649.32,193.27l-11.53,38.65h7.04l6.13-20.41c.32-1.06.62-2.18.9-3.36.28-1.18.56-2.62.85-4.31.31,1.73.62,3.16.93,4.31.3,1.14.61,2.27.93,3.36l6.13,20.41h7.46l5.97-20.41c.32-1.09.63-2.24.93-3.44.3-1.2.61-2.61.93-4.23.35,1.8.68,3.27.98,4.41.3,1.14.59,2.19.87,3.15l6.24,20.52h6.88l-11.74-38.65h.21l11.53-38.65h-7.04l-6.13,20.41c-.32,1.06-.62,2.18-.9,3.36-.28,1.18-.56,2.62-.85,4.31-.31-1.73-.62-3.16-.93-4.31-.3-1.14-.61-2.27-.93-3.36l-6.13-20.41h-7.46l-5.97,20.41c-.32,1.09-.63,2.24-.93,3.44-.3,1.2-.61,2.61-.93,4.23-.35-1.8-.68-3.27-.98-4.41-.3-1.14-.59-2.19-.87-3.15l-6.24-20.52h-6.88l11.74,38.65h-.21ZM656.09,193.27l8.25-28.13,8.46,28.13h-.16l-8.25,28.13-8.46-28.13h.16Z"/>
      <path class="st0" d="M797.24,309.23h6.88l6.24-20.52c.28-.95.57-2,.87-3.15.3-1.14.63-2.62.98-4.41.31,1.62.62,3.03.92,4.23.3,1.2.61,2.35.93,3.44l5.97,20.41h7.46l6.13-20.41c.32-1.09.63-2.22.93-3.36.3-1.14.61-2.58.93-4.31.28,1.69.57,3.13.85,4.31.28,1.18.58,2.3.9,3.36l6.13,20.41h7.04l-11.53-38.65,11.53-38.65h-7.04l-6.13,20.41c-.32,1.06-.62,2.18-.9,3.36-.28,1.18-.56,2.62-.85,4.31-.31-1.73-.62-3.16-.93-4.31-.3-1.14-.61-2.27-.93-3.36l-6.13-20.41h-7.46l-5.97,20.41c-.32,1.09-.63,2.24-.93,3.44-.3,1.2-.61,2.61-.92,4.23-.35-1.8-.68-3.27-.98-4.41-.3-1.14-.59-2.19-.87-3.15l-6.24-20.52h-6.88l11.74,38.65-11.74,38.65ZM823.79,242.45l8.46,28.13-8.46,28.13-8.25-28.13,8.25-28.13Z"/>
      <path class="st0" d="M850.39,154.62l-11.53-38.65,11.53-38.65h-7.04l-6.13,20.41c-.32,1.06-.62,2.18-.9,3.36-.28,1.18-.56,2.62-.85,4.31-.31-1.73-.62-3.16-.93-4.31-.3-1.14-.61-2.27-.93-3.36l-6.13-20.41h-7.46l-5.97,20.41c-.32,1.09-.63,2.24-.93,3.44-.3,1.2-.61,2.61-.92,4.23-.35-1.8-.68-3.27-.98-4.41-.3-1.14-.59-2.19-.87-3.15l-6.24-20.52h-6.88l11.74,38.65-11.74,38.65h6.88l6.24-20.52c.28-.95.57-2,.87-3.15.3-1.14.63-2.62.98-4.41.31,1.62.62,3.03.92,4.23.3,1.2.61,2.35.93,3.44l5.97,20.41h7.46l6.13-20.41c.32-1.09.63-2.22.93-3.36.3-1.14.61-2.58.93-4.31.28,1.69.57,3.13.85,4.31.28,1.18.58,2.3.9,3.36l6.13,20.41h7.04ZM823.79,144.09l-8.25-28.13,8.25-28.13,8.46,28.13-8.46,28.13Z"/>
      <path class="st0" d="M41.41,38.65L53.15,0h-6.88l-6.24,20.52c-.28.95-.57,2-.87,3.15-.3,1.14-.63,2.62-.98,4.41-.31-1.62-.62-3.03-.93-4.23-.3-1.2-.61-2.35-.93-3.44L30.36,0h-7.46l-6.13,20.41c-.32,1.09-.63,2.22-.93,3.36-.3,1.14-.61,2.58-.93,4.31-.28-1.69-.57-3.13-.85-4.31-.28-1.18-.58-2.3-.9-3.36L7.04,0H0l11.53,38.65h.21L0,77.31h6.88l6.24-20.52c.28-.95.57-2,.87-3.15.3-1.14.63-2.62.98-4.41.31,1.62.62,3.03.93,4.23.3,1.2.61,2.35.93,3.44l5.97,20.41h7.46l6.13-20.41c.32-1.09.63-2.22.93-3.36.3-1.14.61-2.58.93-4.31.28,1.69.57,3.13.85,4.31.28,1.18.58,2.3.9,3.36l6.13,20.41h7.04l-11.53-38.65h-.21ZM26.55,66.78l-8.25-28.13h-.16l8.46-28.13,8.25,28.13h.16l-8.46,28.13Z"/>
      <path class="st0" d="M119.42,56.79c.28-.95.57-2,.87-3.15.3-1.14.63-2.62.98-4.41.31,1.62.62,3.03.93,4.23.3,1.2.61,2.35.93,3.44l5.97,20.41h7.46l6.13-20.41c.32-1.09.63-2.22.93-3.36.3-1.14.61-2.58.93-4.31.28,1.69.57,3.13.85,4.31.28,1.18.58,2.3.9,3.36l6.13,20.41h7.04l-11.53-38.65h-.21L159.45,0h-6.88l-6.24,20.52c-.28.95-.57,2-.87,3.15-.3,1.14-.63,2.62-.98,4.41-.31-1.62-.62-3.03-.93-4.23-.3-1.2-.61-2.35-.93-3.44l-5.97-20.41h-7.46l-6.13,20.41c-.32,1.09-.63,2.22-.93,3.36-.3,1.14-.61,2.58-.93,4.31-.28-1.69-.57-3.13-.85-4.31-.28-1.18-.58-2.3-.9-3.36L113.34,0h-7.04l11.53,38.65h.21l-11.74,38.65h6.88l6.24-20.52ZM132.9,10.53l8.25,28.13h.16l-8.46,28.13-8.25-28.13h-.16l8.46-28.13Z"/>
      <path class="st0" d="M66.32,134.21c.32-1.06.62-2.18.9-3.36.28-1.18.56-2.62.85-4.31.31,1.73.62,3.16.93,4.31.3,1.14.61,2.27.93,3.36l6.13,20.41h7.46l5.97-20.41c.32-1.09.63-2.24.93-3.44.3-1.2.61-2.61.93-4.23.35,1.8.68,3.27.98,4.41.3,1.14.59,2.19.87,3.15l6.24,20.52h6.88l-11.74-38.65,11.74-38.65h-6.88l-6.24,20.52c-.28.95-.57,2-.87,3.15-.3,1.14-.63,2.62-.98,4.41-.31-1.62-.62-3.03-.93-4.23-.3-1.2-.61-2.35-.93-3.44l-5.97-20.41h-7.46l-6.13,20.41c-.32,1.09-.63,2.22-.93,3.36-.3,1.14-.61,2.58-.93,4.31-.28-1.69-.57-3.13-.85-4.31-.28-1.18-.58-2.3-.9-3.36l-6.13-20.41h-7.04l11.53,38.65-11.53,38.65h7.04l6.13-20.41ZM79.75,87.83l8.25,28.13-8.25,28.13-8.46-28.13,8.46-28.13Z"/>
      <path class="st0" d="M41.62,193.27l11.53-38.65h-7.04l-6.13,20.41c-.32,1.06-.62,2.18-.9,3.36-.28,1.18-.56,2.62-.85,4.31-.31-1.73-.62-3.16-.93-4.31-.3-1.14-.61-2.27-.93-3.36l-6.13-20.41h-7.46l-5.97,20.41c-.32,1.09-.63,2.24-.93,3.44-.3,1.2-.61,2.61-.93,4.23-.35-1.8-.68-3.27-.98-4.41-.3-1.14-.59-2.19-.87-3.15l-6.24-20.52H0l11.74,38.65h-.21L0,231.93h7.04l6.13-20.41c.32-1.06.62-2.18.9-3.36.28-1.18.56-2.62.85-4.31.31,1.73.62,3.16.93,4.31.3,1.14.61,2.27.93,3.36l6.13,20.41h7.46l5.97-20.41c.32-1.09.63-2.24.93-3.44.3-1.2.61-2.61.93-4.23.35,1.8.68,3.27.98,4.41.3,1.14.59,2.19.87,3.15l6.24,20.52h6.88l-11.74-38.65h.21ZM34.85,193.27l-8.25,28.13-8.46-28.13h.16l8.25-28.13,8.46,28.13h-.16Z"/>
      <path class="st0" d="M119.47,211.52c.32-1.06.62-2.18.9-3.36.28-1.18.56-2.62.85-4.31.31,1.73.62,3.16.93,4.31.3,1.14.61,2.27.93,3.36l6.13,20.41h7.46l5.97-20.41c.32-1.09.63-2.24.93-3.44.3-1.2.61-2.61.93-4.23.35,1.8.68,3.27.98,4.41.3,1.14.59,2.19.87,3.15l6.24,20.52h6.88l-11.74-38.65h.21l11.53-38.65h-7.04l-6.13,20.41c-.32,1.06-.62,2.18-.9,3.36-.28,1.18-.56,2.62-.85,4.31-.31-1.73-.62-3.16-.93-4.31-.3-1.14-.61-2.27-.93-3.36l-6.13-20.41h-7.46l-5.97,20.41c-.32,1.09-.63,2.24-.93,3.44-.3,1.2-.61,2.61-.93,4.23-.35-1.8-.68-3.27-.98-4.41-.3-1.14-.59-2.19-.87-3.15l-6.24-20.52h-6.88l11.74,38.65h-.21l-11.53,38.65h7.04l6.13-20.41ZM124.6,193.27l8.25-28.13,8.46,28.13h-.16l-8.25,28.13-8.46-28.13h.16Z"/>
      <path class="st0" d="M66.27,288.72c.28-.95.57-2,.87-3.15.3-1.14.63-2.62.98-4.41.31,1.62.62,3.03.93,4.23.3,1.2.61,2.35.93,3.44l5.97,20.41h7.46l6.13-20.41c.32-1.09.63-2.22.93-3.36.3-1.14.61-2.58.93-4.31.28,1.69.57,3.13.85,4.31.28,1.18.58,2.3.9,3.36l6.13,20.41h7.04l-11.53-38.65,11.53-38.65h-7.04l-6.13,20.41c-.32,1.06-.62,2.18-.9,3.36-.28,1.18-.56,2.62-.85,4.31-.31-1.73-.62-3.16-.93-4.31-.3-1.14-.61-2.27-.93-3.36l-6.13-20.41h-7.46l-5.97,20.41c-.32,1.09-.63,2.24-.93,3.44-.3,1.2-.61,2.61-.93,4.23-.35-1.8-.68-3.27-.98-4.41-.3-1.14-.59-2.19-.87-3.15l-6.24-20.52h-6.88l11.74,38.65-11.74,38.65h6.88l6.24-20.52ZM79.7,242.45l8.46,28.13-8.46,28.13-8.25-28.13,8.25-28.13Z"/>
      <path class="st0" d="M172.57,288.72c.28-.95.57-2,.87-3.15.3-1.14.63-2.62.98-4.41.31,1.62.62,3.03.93,4.23.3,1.2.61,2.35.93,3.44l5.97,20.41h7.46l6.13-20.41c.32-1.09.63-2.22.93-3.36.3-1.14.61-2.58.93-4.31.28,1.69.57,3.13.85,4.31.28,1.18.58,2.3.9,3.36l6.13,20.41h7.04l-11.53-38.65,11.53-38.65h-7.04l-6.13,20.41c-.32,1.06-.62,2.18-.9,3.36-.28,1.18-.56,2.62-.85,4.31-.31-1.73-.62-3.16-.93-4.31-.3-1.14-.61-2.27-.93-3.36l-6.13-20.41h-7.46l-5.97,20.41c-.32,1.09-.63,2.24-.93,3.44-.3,1.2-.61,2.61-.93,4.23-.35-1.8-.68-3.27-.98-4.41-.3-1.14-.59-2.19-.87-3.15l-6.24-20.52h-6.88l11.74,38.65-11.74,38.65h6.88l6.24-20.52ZM186,242.45l8.46,28.13-8.46,28.13-8.25-28.13,8.25-28.13Z"/>
      <path class="st0" d="M225.72,56.79c.28-.95.57-2,.87-3.15.3-1.14.63-2.62.98-4.41.31,1.62.62,3.03.93,4.23.3,1.2.61,2.35.93,3.44l5.97,20.41h7.46l6.13-20.41c.32-1.09.63-2.22.93-3.36.3-1.14.61-2.58.93-4.31.28,1.69.57,3.13.85,4.31.28,1.18.58,2.3.9,3.36l6.13,20.41h7.04l-11.53-38.65h-.21L265.75,0h-6.88l-6.24,20.52c-.28.95-.57,2-.87,3.15-.3,1.14-.63,2.62-.98,4.41-.31-1.62-.62-3.03-.93-4.23-.3-1.2-.61-2.35-.93-3.44l-5.97-20.41h-7.46l-6.13,20.41c-.32,1.09-.63,2.22-.93,3.36-.3,1.14-.61,2.58-.93,4.31-.28-1.69-.57-3.13-.85-4.31-.28-1.18-.58-2.3-.9-3.36l-6.13-20.41h-7.04l11.53,38.65h.21l-11.74,38.65h6.88l6.24-20.52ZM239.2,10.53l8.25,28.13h.16l-8.46,28.13-8.25-28.13h-.16l8.46-28.13Z"/>
      <path class="st0" d="M332.02,56.79c.28-.95.57-2,.87-3.15.3-1.14.63-2.62.98-4.41.31,1.62.62,3.03.93,4.23.3,1.2.61,2.35.93,3.44l5.97,20.41h7.46l6.13-20.41c.32-1.09.63-2.22.93-3.36.3-1.14.61-2.58.93-4.31.28,1.69.57,3.13.85,4.31.28,1.18.58,2.3.9,3.36l6.13,20.41h7.04l-11.53-38.65h-.21L372.05,0h-6.88l-6.24,20.52c-.28.95-.57,2-.87,3.15-.3,1.14-.63,2.62-.98,4.41-.31-1.62-.62-3.03-.93-4.23-.3-1.2-.61-2.35-.93-3.44l-5.97-20.41h-7.46l-6.13,20.41c-.32,1.09-.63,2.22-.93,3.36-.3,1.14-.61,2.58-.93,4.31-.28-1.69-.57-3.13-.85-4.31-.28-1.18-.58-2.3-.9-3.36l-6.13-20.41h-7.04l11.53,38.65h.21l-11.74,38.65h6.88l6.24-20.52ZM345.5,10.53l8.25,28.13h.16l-8.46,28.13-8.25-28.13h-.16l8.46-28.13Z"/>
      <path class="st0" d="M265.75,154.62h7.04l6.13-20.41c.32-1.06.62-2.18.9-3.36.28-1.18.56-2.62.85-4.31.31,1.73.62,3.16.93,4.31.3,1.14.61,2.27.93,3.36l6.13,20.41h7.46l5.97-20.41c.32-1.09.63-2.24.93-3.44.3-1.2.61-2.61.93-4.23.35,1.8.68,3.27.98,4.41.3,1.14.59,2.19.87,3.15l6.24,20.52h6.88l-11.74-38.65,11.74-38.65h-6.88l-6.24,20.52c-.28.95-.57,2-.87,3.15-.3,1.14-.63,2.62-.98,4.41-.31-1.62-.62-3.03-.93-4.23-.3-1.2-.61-2.35-.93-3.44l-5.97-20.41h-7.46l-6.13,20.41c-.32,1.09-.63,2.22-.93,3.36-.3,1.14-.61,2.58-.93,4.31-.28-1.69-.57-3.13-.85-4.31-.28-1.18-.58-2.3-.9-3.36l-6.13-20.41h-7.04l11.53,38.65-11.53,38.65ZM292.35,87.83l8.25,28.13-8.25,28.13-8.46-28.13,8.46-28.13Z"/>
      <path class="st0" d="M159.45,154.62h7.04l6.13-20.41c.32-1.06.62-2.18.9-3.36.28-1.18.56-2.62.85-4.31.31,1.73.62,3.16.93,4.31.3,1.14.61,2.27.93,3.36l6.13,20.41h7.46l5.97-20.41c.32-1.09.63-2.24.93-3.44.3-1.2.61-2.61.93-4.23.35,1.8.68,3.27.98,4.41.3,1.14.59,2.19.87,3.15l6.24,20.52h6.88l-11.74-38.65,11.74-38.65h-6.88l-6.24,20.52c-.28.95-.57,2-.87,3.15-.3,1.14-.63,2.62-.98,4.41-.31-1.62-.62-3.03-.93-4.23-.3-1.2-.61-2.35-.93-3.44l-5.97-20.41h-7.46l-6.13,20.41c-.32,1.09-.63,2.22-.93,3.36-.3,1.14-.61,2.58-.93,4.31-.28-1.69-.57-3.13-.85-4.31-.28-1.18-.58-2.3-.9-3.36l-6.13-20.41h-7.04l11.53,38.65-11.53,38.65ZM186.05,87.83l8.25,28.13-8.25,28.13-8.46-28.13,8.46-28.13Z"/>
      <path class="st0" d="M330.43,193.27l-11.53,38.65h7.04l6.13-20.41c.32-1.06.62-2.18.9-3.36.28-1.18.56-2.62.85-4.31.31,1.73.62,3.16.93,4.31.3,1.14.61,2.27.93,3.36l6.13,20.41h7.46l5.97-20.41c.32-1.09.63-2.24.93-3.44.3-1.2.61-2.61.93-4.23.35,1.8.68,3.27.98,4.41.3,1.14.59,2.19.87,3.15l6.24,20.52h6.88l-11.74-38.65h.21l11.53-38.65h-7.04l-6.13,20.41c-.32,1.06-.62,2.18-.9,3.36-.28,1.18-.56,2.62-.85,4.31-.31-1.73-.62-3.16-.93-4.31-.3-1.14-.61-2.27-.93-3.36l-6.13-20.41h-7.46l-5.97,20.41c-.32,1.09-.63,2.24-.93,3.44-.3,1.2-.61,2.61-.93,4.23-.35-1.8-.68-3.27-.98-4.41-.3-1.14-.59-2.19-.87-3.15l-6.24-20.52h-6.88l11.74,38.65h-.21ZM337.2,193.27l8.25-28.13,8.46,28.13h-.16l-8.25,28.13-8.46-28.13h.16Z"/>
      <path class="st0" d="M224.13,193.27l-11.53,38.65h7.04l6.13-20.41c.32-1.06.62-2.18.9-3.36.28-1.18.56-2.62.85-4.31.31,1.73.62,3.16.93,4.31.3,1.14.61,2.27.93,3.36l6.13,20.41h7.46l5.97-20.41c.32-1.09.63-2.24.93-3.44.3-1.2.61-2.61.93-4.23.35,1.8.68,3.27.98,4.41.3,1.14.59,2.19.87,3.15l6.24,20.52h6.88l-11.74-38.65h.21l11.53-38.65h-7.04l-6.13,20.41c-.32,1.06-.62,2.18-.9,3.36-.28,1.18-.56,2.62-.85,4.31-.31-1.73-.62-3.16-.93-4.31-.3-1.14-.61-2.27-.93-3.36l-6.13-20.41h-7.46l-5.97,20.41c-.32,1.09-.63,2.24-.93,3.44-.3,1.2-.61,2.61-.93,4.23-.35-1.8-.68-3.27-.98-4.41-.3-1.14-.59-2.19-.87-3.15l-6.24-20.52h-6.88l11.74,38.65h-.21ZM230.9,193.27l8.25-28.13,8.46,28.13h-.16l-8.25,28.13-8.46-28.13h.16Z"/>
      <path class="st0" d="M265.75,309.23h6.88l6.24-20.52c.28-.95.57-2,.87-3.15.3-1.14.63-2.62.98-4.41.31,1.62.62,3.03.93,4.23.3,1.2.61,2.35.93,3.44l5.97,20.41h7.46l6.13-20.41c.32-1.09.63-2.22.93-3.36.3-1.14.61-2.58.93-4.31.28,1.69.57,3.13.85,4.31.28,1.18.58,2.3.9,3.36l6.13,20.41h7.04l-11.53-38.65,11.53-38.65h-7.04l-6.13,20.41c-.32,1.06-.62,2.18-.9,3.36-.28,1.18-.56,2.62-.85,4.31-.31-1.73-.62-3.16-.93-4.31-.3-1.14-.61-2.27-.93-3.36l-6.13-20.41h-7.46l-5.97,20.41c-.32,1.09-.63,2.24-.93,3.44-.3,1.2-.61,2.61-.93,4.23-.35-1.8-.68-3.27-.98-4.41-.3-1.14-.59-2.19-.87-3.15l-6.24-20.52h-6.88l11.74,38.65-11.74,38.65ZM292.3,242.45l8.46,28.13-8.46,28.13-8.25-28.13,8.25-28.13Z"/>
      <path class="st0" d="M372.05,309.23h6.88l6.24-20.52c.28-.95.57-2,.87-3.15.3-1.14.63-2.62.98-4.41.31,1.62.62,3.03.93,4.23.3,1.2.61,2.35.93,3.44l5.97,20.41h7.46l6.13-20.41c.32-1.09.63-2.22.93-3.36.3-1.14.61-2.58.93-4.31.28,1.69.57,3.13.85,4.31.28,1.18.58,2.3.9,3.36l6.13,20.41h7.04l-11.53-38.65,11.53-38.65h-7.04l-6.13,20.41c-.32,1.06-.62,2.18-.9,3.36-.28,1.18-.56,2.62-.85,4.31-.31-1.73-.62-3.16-.93-4.31-.3-1.14-.61-2.27-.93-3.36l-6.13-20.41h-7.46l-5.97,20.41c-.32,1.09-.63,2.24-.93,3.44-.3,1.2-.61,2.61-.93,4.23-.35-1.8-.68-3.27-.98-4.41-.3-1.14-.59-2.19-.87-3.15l-6.24-20.52h-6.88l11.74,38.65-11.74,38.65ZM398.6,242.45l8.46,28.13-8.46,28.13-8.25-28.13,8.25-28.13Z"/>
      <path class="st0" d="M97.32,38.73c0-11.53-7.94-19.41-19.46-19.41h-13.65v38.65h14.02c11.3,0,19.09-7.88,19.09-19.25ZM71.03,51.74v-26.17h6.19c8.05,0,12.9,4.97,12.9,13.16s-4.75,13.01-12.53,13.01h-6.56Z"/>
      <path class="st0" d="M203.61,38.73c0-11.53-7.94-19.41-19.46-19.41h-13.65v38.65h14.02c11.3,0,19.09-7.88,19.09-19.25ZM177.33,51.74v-26.17h6.19c8.05,0,12.9,4.97,12.9,13.16s-4.75,13.01-12.53,13.01h-6.56Z"/>
      <path class="st0" d="M309.91,38.73c0-11.53-7.94-19.41-19.46-19.41h-13.65v38.65h14.02c11.3,0,19.09-7.88,19.09-19.25ZM283.63,51.74v-26.17h6.19c8.05,0,12.9,4.97,12.9,13.16s-4.75,13.01-12.53,13.01h-6.56Z"/>
      <path class="st0" d="M416.21,38.73c0-11.53-7.94-19.41-19.46-19.41h-13.65v38.65h14.02c11.3,0,19.09-7.88,19.09-19.25ZM389.93,51.74v-26.17h6.19c8.05,0,12.9,4.97,12.9,13.16s-4.75,13.01-12.53,13.01h-6.56Z"/>
      <path class="st0" d="M522.51,38.73c0-11.53-7.94-19.41-19.46-19.41h-13.65v38.65h14.02c11.3,0,19.09-7.88,19.09-19.25ZM496.23,51.74v-26.17h6.19c8.05,0,12.9,4.97,12.9,13.16s-4.75,13.01-12.53,13.01h-6.56Z"/>
      <path class="st0" d="M628.81,38.73c0-11.53-7.94-19.41-19.46-19.41h-13.65v38.65h14.02c11.3,0,19.09-7.88,19.09-19.25ZM602.53,51.74v-26.17h6.19c8.05,0,12.9,4.97,12.9,13.16s-4.75,13.01-12.53,13.01h-6.56Z"/>
      <path class="st0" d="M735.11,38.73c0-11.53-7.94-19.41-19.46-19.41h-13.65v38.65h14.02c11.3,0,19.09-7.88,19.09-19.25ZM708.83,51.74v-26.17h6.19c8.05,0,12.9,4.97,12.9,13.16s-4.75,13.01-12.53,13.01h-6.56Z"/>
      <path class="st0" d="M841.41,38.73c0-11.53-7.94-19.41-19.46-19.41h-13.65v38.65h14.02c11.3,0,19.09-7.88,19.09-19.25ZM815.12,51.74v-26.17h6.19c8.05,0,12.9,4.97,12.9,13.16s-4.75,13.01-12.53,13.01h-6.56Z"/>
      <path class="st0" d="M755.15,115.88c0,11.53,7.94,19.41,19.46,19.41h13.65v-38.65h-14.02c-11.3,0-19.09,7.88-19.09,19.25ZM781.43,102.87v26.17h-6.19c-8.05,0-12.9-4.97-12.9-13.16s4.75-13.01,12.53-13.01h6.56Z"/>
      <path class="st0" d="M668.31,135.29h13.65v-38.65h-14.02c-11.3,0-19.09,7.88-19.09,19.25s7.94,19.41,19.46,19.41ZM668.57,102.87h6.56v26.17h-6.19c-8.05,0-12.9-4.97-12.9-13.16s4.75-13.01,12.53-13.01Z"/>
      <path class="st0" d="M562.01,135.29h13.65v-38.65h-14.02c-11.3,0-19.09,7.88-19.09,19.25s7.94,19.41,19.46,19.41ZM562.28,102.87h6.56v26.17h-6.19c-8.05,0-12.9-4.97-12.9-13.16s4.75-13.01,12.53-13.01Z"/>
      <path class="st0" d="M455.71,135.29h13.65v-38.65h-14.02c-11.3,0-19.09,7.88-19.09,19.25s7.94,19.41,19.46,19.41ZM455.98,102.87h6.56v26.17h-6.19c-8.05,0-12.9-4.97-12.9-13.16s4.75-13.01,12.53-13.01Z"/>
      <path class="st0" d="M349.41,135.29h13.65v-38.65h-14.02c-11.3,0-19.09,7.88-19.09,19.25s7.94,19.41,19.46,19.41ZM349.68,102.87h6.56v26.17h-6.19c-8.05,0-12.9-4.97-12.9-13.16s4.75-13.01,12.53-13.01Z"/>
      <path class="st0" d="M243.11,135.29h13.65v-38.65h-14.02c-11.3,0-19.09,7.88-19.09,19.25s7.94,19.41,19.46,19.41ZM243.38,102.87h6.56v26.17h-6.19c-8.05,0-12.9-4.97-12.9-13.16s4.75-13.01,12.53-13.01Z"/>
      <path class="st0" d="M136.81,135.29h13.65v-38.65h-14.02c-11.3,0-19.09,7.88-19.09,19.25s7.94,19.41,19.46,19.41ZM137.08,102.87h6.56v26.17h-6.19c-8.05,0-12.9-4.97-12.9-13.16s4.75-13.01,12.53-13.01Z"/>
      <path class="st0" d="M30.52,135.29h13.65v-38.65h-14.02c-11.3,0-19.09,7.88-19.09,19.25s7.94,19.41,19.46,19.41ZM30.78,102.87h6.56v26.17h-6.19c-8.05,0-12.9-4.97-12.9-13.16s4.75-13.01,12.53-13.01Z"/>
      <path class="st0" d="M97.32,193.35c0-11.53-7.94-19.41-19.46-19.41h-13.65v38.65h14.02c11.3,0,19.09-7.88,19.09-19.25ZM71.03,206.36v-26.17h6.19c8.05,0,12.9,4.97,12.9,13.16s-4.75,13.01-12.53,13.01h-6.56Z"/>
      <path class="st0" d="M203.61,193.35c0-11.53-7.94-19.41-19.46-19.41h-13.65v38.65h14.02c11.3,0,19.09-7.88,19.09-19.25ZM177.33,206.36v-26.17h6.19c8.05,0,12.9,4.97,12.9,13.16s-4.75,13.01-12.53,13.01h-6.56Z"/>
      <path class="st0" d="M309.91,193.35c0-11.53-7.94-19.41-19.46-19.41h-13.65v38.65h14.02c11.3,0,19.09-7.88,19.09-19.25ZM283.63,206.36v-26.17h6.19c8.05,0,12.9,4.97,12.9,13.16s-4.75,13.01-12.53,13.01h-6.56Z"/>
      <path class="st0" d="M416.21,193.35c0-11.53-7.94-19.41-19.46-19.41h-13.65v38.65h14.02c11.3,0,19.09-7.88,19.09-19.25ZM389.93,206.36v-26.17h6.19c8.05,0,12.9,4.97,12.9,13.16s-4.75,13.01-12.53,13.01h-6.56Z"/>
      <path class="st0" d="M522.51,193.35c0-11.53-7.94-19.41-19.46-19.41h-13.65v38.65h14.02c11.3,0,19.09-7.88,19.09-19.25ZM496.23,206.36v-26.17h6.19c8.05,0,12.9,4.97,12.9,13.16s-4.75,13.01-12.53,13.01h-6.56Z"/>
      <path class="st0" d="M628.81,193.35c0-11.53-7.94-19.41-19.46-19.41h-13.65v38.65h14.02c11.3,0,19.09-7.88,19.09-19.25ZM602.53,206.36v-26.17h6.19c8.05,0,12.9,4.97,12.9,13.16s-4.75,13.01-12.53,13.01h-6.56Z"/>
      <path class="st0" d="M715.65,173.94h-13.65v38.65h14.02c11.3,0,19.09-7.88,19.09-19.25s-7.94-19.41-19.46-19.41ZM715.39,206.36h-6.56v-26.17h6.19c8.05,0,12.9,4.97,12.9,13.16s-4.75,13.01-12.53,13.01Z"/>
      <path class="st0" d="M821.95,173.94h-13.65v38.65h14.02c11.3,0,19.09-7.88,19.09-19.25s-7.94-19.41-19.46-19.41ZM821.69,206.36h-6.56v-26.17h6.19c8.05,0,12.9,4.97,12.9,13.16s-4.75,13.01-12.53,13.01Z"/>
      <path class="st0" d="M755.15,270.5c0,11.53,7.94,19.41,19.46,19.41h13.65v-38.65h-14.02c-11.3,0-19.09,7.88-19.09,19.25ZM781.43,257.49v26.17h-6.19c-8.05,0-12.9-4.97-12.9-13.16s4.75-13.01,12.53-13.01h6.56Z"/>
      <path class="st0" d="M648.85,270.5c0,11.53,7.94,19.41,19.46,19.41h13.65v-38.65h-14.02c-11.3,0-19.09,7.88-19.09,19.25ZM675.14,257.49v26.17h-6.19c-8.05,0-12.9-4.97-12.9-13.16s4.75-13.01,12.53-13.01h6.56Z"/>
      <path class="st0" d="M562.01,289.91h13.65v-38.65h-14.02c-11.3,0-19.09,7.88-19.09,19.25s7.94,19.41,19.46,19.41ZM562.28,257.49h6.56v26.17h-6.19c-8.05,0-12.9-4.97-12.9-13.16s4.75-13.01,12.53-13.01Z"/>
      <path class="st0" d="M455.71,289.91h13.65v-38.65h-14.02c-11.3,0-19.09,7.88-19.09,19.25s7.94,19.41,19.46,19.41ZM455.98,257.49h6.56v26.17h-6.19c-8.05,0-12.9-4.97-12.9-13.16s4.75-13.01,12.53-13.01Z"/>
      <path class="st0" d="M349.41,289.91h13.65v-38.65h-14.02c-11.3,0-19.09,7.88-19.09,19.25s7.94,19.41,19.46,19.41ZM349.68,257.49h6.56v26.17h-6.19c-8.05,0-12.9-4.97-12.9-13.16s4.75-13.01,12.53-13.01Z"/>
      <path class="st0" d="M243.11,289.91h13.65v-38.65h-14.02c-11.3,0-19.09,7.88-19.09,19.25s7.94,19.41,19.46,19.41ZM243.38,257.49h6.56v26.17h-6.19c-8.05,0-12.9-4.97-12.9-13.16s4.75-13.01,12.53-13.01Z"/>
      <path class="st0" d="M136.81,289.91h13.65v-38.65h-14.02c-11.3,0-19.09,7.88-19.09,19.25s7.94,19.41,19.46,19.41ZM137.08,257.49h6.56v26.17h-6.19c-8.05,0-12.9-4.97-12.9-13.16s4.75-13.01,12.53-13.01Z"/>
      <path class="st0" d="M30.52,289.91h13.65v-38.65h-14.02c-11.3,0-19.09,7.88-19.09,19.25s7.94,19.41,19.46,19.41ZM30.78,257.49h6.56v26.17h-6.19c-8.05,0-12.9-4.97-12.9-13.16s4.75-13.01,12.53-13.01Z"/>
      <path class="st0" d="M425.2,386.54h-6.88l-6.24,20.52c-.28.95-.57,2-.87,3.15-.3,1.14-.63,2.62-.98,4.41-.31-1.62-.62-3.03-.93-4.23-.3-1.2-.61-2.35-.93-3.44l-5.97-20.41h-7.46l-6.13,20.41c-.32,1.09-.63,2.22-.93,3.36-.3,1.14-.61,2.58-.93,4.31-.28-1.69-.57-3.13-.85-4.31-.28-1.18-.58-2.3-.9-3.36l-6.13-20.41h-7.04l11.53,38.65-11.53,38.65h7.04l6.13-20.41c.32-1.06.62-2.18.9-3.36.28-1.18.56-2.62.85-4.31.31,1.73.62,3.16.93,4.31.3,1.14.61,2.27.93,3.36l6.13,20.41h7.46l5.97-20.41c.32-1.09.63-2.24.93-3.44.3-1.2.61-2.61.93-4.23.35,1.8.68,3.27.98,4.41.3,1.14.59,2.19.87,3.15l6.24,20.52h6.88l-11.74-38.65,11.74-38.65ZM398.65,453.33l-8.46-28.13,8.46-28.13,8.25,28.13-8.25,28.13Z"/>
      <path class="st0" d="M531.5,386.54h-6.88l-6.24,20.52c-.28.95-.57,2-.87,3.15-.3,1.14-.63,2.62-.98,4.41-.31-1.62-.62-3.03-.93-4.23-.3-1.2-.61-2.35-.93-3.44l-5.97-20.41h-7.46l-6.13,20.41c-.32,1.09-.63,2.22-.93,3.36-.3,1.14-.61,2.58-.93,4.31-.28-1.69-.57-3.13-.85-4.31-.28-1.18-.58-2.3-.9-3.36l-6.13-20.41h-7.04l11.53,38.65-11.53,38.65h7.04l6.13-20.41c.32-1.06.62-2.18.9-3.36.28-1.18.56-2.62.85-4.31.31,1.73.62,3.16.93,4.31.3,1.14.61,2.27.93,3.36l6.13,20.41h7.46l5.97-20.41c.32-1.09.63-2.24.93-3.44.3-1.2.61-2.61.93-4.23.35,1.8.68,3.27.98,4.41.3,1.14.59,2.19.87,3.15l6.24,20.52h6.88l-11.74-38.65,11.74-38.65ZM504.95,453.33l-8.46-28.13,8.46-28.13,8.25,28.13-8.25,28.13Z"/>
      <path class="st0" d="M573.12,502.51l11.53-38.65h-7.04l-6.13,20.41c-.32,1.06-.62,2.18-.9,3.36-.28,1.18-.56,2.62-.85,4.31-.31-1.73-.62-3.16-.93-4.31-.3-1.14-.61-2.27-.93-3.36l-6.13-20.41h-7.46l-5.97,20.41c-.32,1.09-.63,2.24-.93,3.44-.3,1.2-.61,2.61-.93,4.23-.35-1.8-.68-3.27-.98-4.41-.3-1.14-.59-2.19-.87-3.15l-6.24-20.52h-6.88l11.74,38.65h-.21l-11.53,38.65h7.04l6.13-20.41c.32-1.06.62-2.18.9-3.36.28-1.18.56-2.62.85-4.31.31,1.73.62,3.16.93,4.31.3,1.14.61,2.27.93,3.36l6.13,20.41h7.46l5.97-20.41c.32-1.09.63-2.24.93-3.44.3-1.2.61-2.61.93-4.23.35,1.8.68,3.27.98,4.41.3,1.14.59,2.19.87,3.15l6.24,20.52h6.88l-11.74-38.65h.21ZM566.35,502.51l-8.25,28.13-8.46-28.13h.16l8.25-28.13,8.46,28.13h-.16Z"/>
      <path class="st0" d="M466.82,502.51l11.53-38.65h-7.04l-6.13,20.41c-.32,1.06-.62,2.18-.9,3.36-.28,1.18-.56,2.62-.85,4.31-.31-1.73-.62-3.16-.93-4.31-.3-1.14-.61-2.27-.93-3.36l-6.13-20.41h-7.46l-5.97,20.41c-.32,1.09-.63,2.24-.93,3.44-.3,1.2-.61,2.61-.93,4.23-.35-1.8-.68-3.27-.98-4.41-.3-1.14-.59-2.19-.87-3.15l-6.24-20.52h-6.88l11.74,38.65h-.21l-11.53,38.65h7.04l6.13-20.41c.32-1.06.62-2.18.9-3.36.28-1.18.56-2.62.85-4.31.31,1.73.62,3.16.93,4.31.3,1.14.61,2.27.93,3.36l6.13,20.41h7.46l5.97-20.41c.32-1.09.63-2.24.93-3.44.3-1.2.61-2.61.93-4.23.35,1.8.68,3.27.98,4.41.3,1.14.59,2.19.87,3.15l6.24,20.52h6.88l-11.74-38.65h.21ZM460.05,502.51l-8.25,28.13-8.46-28.13h.16l8.25-28.13,8.46,28.13h-.16Z"/>
      <path class="st0" d="M637.8,541.16h-7.04l-6.13,20.41c-.32,1.06-.62,2.18-.9,3.36-.28,1.18-.56,2.62-.85,4.31-.31-1.73-.62-3.16-.93-4.31-.3-1.14-.61-2.27-.93-3.36l-6.13-20.41h-7.46l-5.97,20.41c-.32,1.09-.63,2.24-.93,3.44-.3,1.2-.61,2.61-.93,4.23-.35-1.8-.68-3.27-.98-4.41-.3-1.14-.59-2.19-.87-3.15l-6.24-20.52h-6.88l11.74,38.65-11.74,38.65h6.88l6.24-20.52c.28-.95.57-2,.87-3.15.3-1.14.63-2.62.98-4.41.31,1.62.62,3.03.93,4.23.3,1.2.61,2.35.93,3.44l5.97,20.41h7.46l6.13-20.41c.32-1.09.63-2.22.93-3.36.3-1.14.61-2.58.93-4.31.28,1.69.57,3.13.85,4.31.28,1.18.58,2.3.9,3.36l6.13,20.41h7.04l-11.53-38.65,11.53-38.65ZM611.19,607.94l-8.25-28.13,8.25-28.13,8.46,28.13-8.46,28.13Z"/>
      <path class="st0" d="M531.5,541.16h-7.04l-6.13,20.41c-.32,1.06-.62,2.18-.9,3.36-.28,1.18-.56,2.62-.85,4.31-.31-1.73-.62-3.16-.93-4.31-.3-1.14-.61-2.27-.93-3.36l-6.13-20.41h-7.46l-5.97,20.41c-.32,1.09-.63,2.24-.93,3.44-.3,1.2-.61,2.61-.93,4.23-.35-1.8-.68-3.27-.98-4.41-.3-1.14-.59-2.19-.87-3.15l-6.24-20.52h-6.88l11.74,38.65-11.74,38.65h6.88l6.24-20.52c.28-.95.57-2,.87-3.15.3-1.14.63-2.62.98-4.41.31,1.62.62,3.03.93,4.23.3,1.2.61,2.35.93,3.44l5.97,20.41h7.46l6.13-20.41c.32-1.09.63-2.22.93-3.36.3-1.14.61-2.58.93-4.31.28,1.69.57,3.13.85,4.31.28,1.18.58,2.3.9,3.36l6.13,20.41h7.04l-11.53-38.65,11.53-38.65ZM504.9,607.94l-8.25-28.13,8.25-28.13,8.46,28.13-8.46,28.13Z"/>
      <path class="st0" d="M436.94,347.89l-11.74,38.65h6.88l6.24-20.52c.28-.95.57-2,.87-3.15.3-1.14.63-2.62.98-4.41.31,1.62.62,3.03.93,4.23.3,1.2.61,2.35.93,3.44l5.97,20.41h7.46l6.13-20.41c.32-1.09.63-2.22.93-3.36.3-1.14.61-2.58.93-4.31.28,1.69.57,3.13.85,4.31.28,1.18.58,2.3.9,3.36l6.13,20.41h7.04l-11.53-38.65h-.21l11.74-38.65h-6.88l-6.24,20.52c-.28.95-.57,2-.87,3.15-.3,1.14-.63,2.62-.98,4.41-.31-1.62-.62-3.03-.93-4.23-.3-1.2-.61-2.35-.93-3.44l-5.97-20.41h-7.46l-6.13,20.41c-.32,1.09-.63,2.22-.93,3.36-.3,1.14-.61,2.58-.93,4.31-.28-1.69-.57-3.13-.85-4.31-.28-1.18-.58-2.3-.9-3.36l-6.13-20.41h-7.04l11.53,38.65h.21ZM451.8,319.76l8.25,28.13h.16l-8.46,28.13-8.25-28.13h-.16l8.46-28.13Z"/>
      <path class="st0" d="M543.24,347.89l-11.74,38.65h6.88l6.24-20.52c.28-.95.57-2,.87-3.15.3-1.14.63-2.62.98-4.41.31,1.62.62,3.03.93,4.23.3,1.2.61,2.35.93,3.44l5.97,20.41h7.46l6.13-20.41c.32-1.09.63-2.22.93-3.36.3-1.14.61-2.58.93-4.31.28,1.69.57,3.13.85,4.31.28,1.18.58,2.3.9,3.36l6.13,20.41h7.04l-11.53-38.65h-.21l11.74-38.65h-6.88l-6.24,20.52c-.28.95-.57,2-.87,3.15-.3,1.14-.63,2.62-.98,4.41-.31-1.62-.62-3.03-.93-4.23-.3-1.2-.61-2.35-.93-3.44l-5.97-20.41h-7.46l-6.13,20.41c-.32,1.09-.63,2.22-.93,3.36-.3,1.14-.61,2.58-.93,4.31-.28-1.69-.57-3.13-.85-4.31-.28-1.18-.58-2.3-.9-3.36l-6.13-20.41h-7.04l11.53,38.65h.21ZM558.1,319.76l8.25,28.13h.16l-8.46,28.13-8.25-28.13h-.16l8.46-28.13Z"/>
      <path class="st0" d="M624.68,407.06c-.28.95-.57,2-.87,3.15-.3,1.14-.63,2.62-.98,4.41-.31-1.62-.62-3.03-.93-4.23-.3-1.2-.61-2.35-.93-3.44l-5.97-20.41h-7.46l-6.13,20.41c-.32,1.09-.63,2.22-.93,3.36-.3,1.14-.61,2.58-.93,4.31-.28-1.69-.57-3.13-.85-4.31-.28-1.18-.58-2.3-.9-3.36l-6.13-20.41h-7.04l11.53,38.65-11.53,38.65h7.04l6.13-20.41c.32-1.06.62-2.18.9-3.36.28-1.18.56-2.62.85-4.31.31,1.73.62,3.16.93,4.31.3,1.14.61,2.27.93,3.36l6.13,20.41h7.46l5.97-20.41c.32-1.09.63-2.24.93-3.44.3-1.2.61-2.61.93-4.23.35,1.8.68,3.27.98,4.41.3,1.14.59,2.19.87,3.15l6.24,20.52h6.88l-11.74-38.65,11.74-38.65h-6.88l-6.24,20.52ZM611.25,453.33l-8.46-28.13,8.46-28.13,8.25,28.13-8.25,28.13Z"/>
      <path class="st0" d="M730.98,407.06c-.28.95-.57,2-.87,3.15-.3,1.14-.63,2.62-.98,4.41-.31-1.62-.62-3.03-.93-4.23-.3-1.2-.61-2.35-.93-3.44l-5.97-20.41h-7.46l-6.13,20.41c-.32,1.09-.63,2.22-.93,3.36-.3,1.14-.61,2.58-.93,4.31-.28-1.69-.57-3.13-.85-4.31-.28-1.18-.58-2.3-.9-3.36l-6.13-20.41h-7.04l11.53,38.65-11.53,38.65h7.04l6.13-20.41c.32-1.06.62-2.18.9-3.36.28-1.18.56-2.62.85-4.31.31,1.73.62,3.16.93,4.31.3,1.14.61,2.27.93,3.36l6.13,20.41h7.46l5.97-20.41c.32-1.09.63-2.24.93-3.44.3-1.2.61-2.61.93-4.23.35,1.8.68,3.27.98,4.41.3,1.14.59,2.19.87,3.15l6.24,20.52h6.88l-11.74-38.65,11.74-38.65h-6.88l-6.24,20.52ZM717.55,453.33l-8.46-28.13,8.46-28.13,8.25,28.13-8.25,28.13Z"/>
      <path class="st0" d="M784.08,484.26c-.32,1.06-.62,2.18-.9,3.36-.28,1.18-.56,2.62-.85,4.31-.31-1.73-.62-3.16-.93-4.31-.3-1.14-.61-2.27-.93-3.36l-6.13-20.41h-7.46l-5.97,20.41c-.32,1.09-.63,2.24-.93,3.44-.3,1.2-.61,2.61-.93,4.23-.35-1.8-.68-3.27-.98-4.41-.3-1.14-.59-2.19-.87-3.15l-6.24-20.52h-6.88l11.74,38.65h-.21l-11.53,38.65h7.04l6.13-20.41c.32-1.06.62-2.18.9-3.36.28-1.18.56-2.62.85-4.31.31,1.73.62,3.16.93,4.31.3,1.14.61,2.27.93,3.36l6.13,20.41h7.46l5.97-20.41c.32-1.09.63-2.24.93-3.44.3-1.2.61-2.61.93-4.23.35,1.8.68,3.27.98,4.41.3,1.14.59,2.19.87,3.15l6.24,20.52h6.88l-11.74-38.65h.21l11.53-38.65h-7.04l-6.13,20.41ZM778.95,502.51l-8.25,28.13-8.46-28.13h.16l8.25-28.13,8.46,28.13h-.16Z"/>
      <path class="st0" d="M677.78,484.26c-.32,1.06-.62,2.18-.9,3.36-.28,1.18-.56,2.62-.85,4.31-.31-1.73-.62-3.16-.93-4.31-.3-1.14-.61-2.27-.93-3.36l-6.13-20.41h-7.46l-5.97,20.41c-.32,1.09-.63,2.24-.93,3.44-.3,1.2-.61,2.61-.93,4.23-.35-1.8-.68-3.27-.98-4.41-.3-1.14-.59-2.19-.87-3.15l-6.24-20.52h-6.88l11.74,38.65h-.21l-11.53,38.65h7.04l6.13-20.41c.32-1.06.62-2.18.9-3.36.28-1.18.56-2.62.85-4.31.31,1.73.62,3.16.93,4.31.3,1.14.61,2.27.93,3.36l6.13,20.41h7.46l5.97-20.41c.32-1.09.63-2.24.93-3.44.3-1.2.61-2.61.93-4.23.35,1.8.68,3.27.98,4.41.3,1.14.59,2.19.87,3.15l6.24,20.52h6.88l-11.74-38.65h.21l11.53-38.65h-7.04l-6.13,20.41ZM672.65,502.51l-8.25,28.13-8.46-28.13h.16l8.25-28.13,8.46,28.13h-.16Z"/>
      <path class="st0" d="M730.93,561.57c-.32,1.06-.62,2.18-.9,3.36-.28,1.18-.56,2.62-.85,4.31-.31-1.73-.62-3.16-.93-4.31-.3-1.14-.61-2.27-.93-3.36l-6.13-20.41h-7.46l-5.97,20.41c-.32,1.09-.63,2.24-.93,3.44-.3,1.2-.61,2.61-.93,4.23-.35-1.8-.68-3.27-.98-4.41-.3-1.14-.59-2.19-.87-3.15l-6.24-20.52h-6.88l11.74,38.65-11.74,38.65h6.88l6.24-20.52c.28-.95.57-2,.87-3.15.3-1.14.63-2.62.98-4.41.31,1.62.62,3.03.93,4.23.3,1.2.61,2.35.93,3.44l5.97,20.41h7.46l6.13-20.41c.32-1.09.63-2.22.93-3.36.3-1.14.61-2.58.93-4.31.28,1.69.57,3.13.85,4.31.28,1.18.58,2.3.9,3.36l6.13,20.41h7.04l-11.53-38.65,11.53-38.65h-7.04l-6.13,20.41ZM717.49,607.94l-8.25-28.13,8.25-28.13,8.46,28.13-8.46,28.13Z"/>
      <path class="st0" d="M677.83,329.75c-.28.95-.57,2-.87,3.15-.3,1.14-.63,2.62-.98,4.41-.31-1.62-.62-3.03-.93-4.23-.3-1.2-.61-2.35-.93-3.44l-5.97-20.41h-7.46l-6.13,20.41c-.32,1.09-.63,2.22-.93,3.36-.3,1.14-.61,2.58-.93,4.31-.28-1.69-.57-3.13-.85-4.31-.28-1.18-.58-2.3-.9-3.36l-6.13-20.41h-7.04l11.53,38.65h.21l-11.74,38.65h6.88l6.24-20.52c.28-.95.57-2,.87-3.15.3-1.14.63-2.62.98-4.41.31,1.62.62,3.03.93,4.23.3,1.2.61,2.35.93,3.44l5.97,20.41h7.46l6.13-20.41c.32-1.09.63-2.22.93-3.36.3-1.14.61-2.58.93-4.31.28,1.69.57,3.13.85,4.31.28,1.18.58,2.3.9,3.36l6.13,20.41h7.04l-11.53-38.65h-.21l11.74-38.65h-6.88l-6.24,20.52ZM664.34,376.02l-8.25-28.13h-.16l8.46-28.13,8.25,28.13h.16l-8.46,28.13Z"/>
      <path class="st0" d="M784.13,329.75c-.28.95-.57,2-.87,3.15-.3,1.14-.63,2.62-.98,4.41-.31-1.62-.62-3.03-.93-4.23-.3-1.2-.61-2.35-.93-3.44l-5.97-20.41h-7.46l-6.13,20.41c-.32,1.09-.63,2.22-.93,3.36-.3,1.14-.61,2.58-.93,4.31-.28-1.69-.57-3.13-.85-4.31-.28-1.18-.58-2.3-.9-3.36l-6.13-20.41h-7.04l11.53,38.65h.21l-11.74,38.65h6.88l6.24-20.52c.28-.95.57-2,.87-3.15.3-1.14.63-2.62.98-4.41.31,1.62.62,3.03.93,4.23.3,1.2.61,2.35.93,3.44l5.97,20.41h7.46l6.13-20.41c.32-1.09.63-2.22.93-3.36.3-1.14.61-2.58.93-4.31.28,1.69.57,3.13.85,4.31.28,1.18.58,2.3.9,3.36l6.13,20.41h7.04l-11.53-38.65h-.21l11.74-38.65h-6.88l-6.24,20.52ZM770.64,376.02l-8.25-28.13h-.16l8.46-28.13,8.25,28.13h.16l-8.46,28.13Z"/>
      <path class="st0" d="M797.24,618.47h6.88l6.24-20.52c.28-.95.57-2,.87-3.15.3-1.14.63-2.62.98-4.41.31,1.62.62,3.03.92,4.23.3,1.2.61,2.35.93,3.44l5.97,20.41h7.46l6.13-20.41c.32-1.09.63-2.22.93-3.36.3-1.14.61-2.58.93-4.31.28,1.69.57,3.13.85,4.31.28,1.18.58,2.3.9,3.36l6.13,20.41h7.04l-11.53-38.65,11.53-38.65h-7.04l-6.13,20.41c-.32,1.06-.62,2.18-.9,3.36-.28,1.18-.56,2.62-.85,4.31-.31-1.73-.62-3.16-.93-4.31-.3-1.14-.61-2.27-.93-3.36l-6.13-20.41h-7.46l-5.97,20.41c-.32,1.09-.63,2.24-.93,3.44-.3,1.2-.61,2.61-.92,4.23-.35-1.8-.68-3.27-.98-4.41-.3-1.14-.59-2.19-.87-3.15l-6.24-20.52h-6.88l11.74,38.65-11.74,38.65ZM823.79,551.68l8.46,28.13-8.46,28.13-8.25-28.13,8.25-28.13Z"/>
      <path class="st0" d="M797.24,463.85h6.88l6.24-20.52c.28-.95.57-2,.87-3.15.3-1.14.63-2.62.98-4.41.31,1.62.62,3.03.92,4.23.3,1.2.61,2.35.93,3.44l5.97,20.41h7.46l6.13-20.41c.32-1.09.63-2.22.93-3.36.3-1.14.61-2.58.93-4.31.28,1.69.57,3.13.85,4.31.28,1.18.58,2.3.9,3.36l6.13,20.41h7.04l-11.53-38.65,11.53-38.65h-7.04l-6.13,20.41c-.32,1.06-.62,2.18-.9,3.36-.28,1.18-.56,2.62-.85,4.31-.31-1.73-.62-3.16-.93-4.31-.3-1.14-.61-2.27-.93-3.36l-6.13-20.41h-7.46l-5.97,20.41c-.32,1.09-.63,2.24-.93,3.44-.3,1.2-.61,2.61-.92,4.23-.35-1.8-.68-3.27-.98-4.41-.3-1.14-.59-2.19-.87-3.15l-6.24-20.52h-6.88l11.74,38.65-11.74,38.65ZM823.79,397.07l8.46,28.13-8.46,28.13-8.25-28.13,8.25-28.13Z"/>
      <path class="st0" d="M41.41,347.89l11.74-38.65h-6.88l-6.24,20.52c-.28.95-.57,2-.87,3.15-.3,1.14-.63,2.62-.98,4.41-.31-1.62-.62-3.03-.93-4.23-.3-1.2-.61-2.35-.93-3.44l-5.97-20.41h-7.46l-6.13,20.41c-.32,1.09-.63,2.22-.93,3.36-.3,1.14-.61,2.58-.93,4.31-.28-1.69-.57-3.13-.85-4.31-.28-1.18-.58-2.3-.9-3.36l-6.13-20.41H0l11.53,38.65h.21L0,386.54h6.88l6.24-20.52c.28-.95.57-2,.87-3.15.3-1.14.63-2.62.98-4.41.31,1.62.62,3.03.93,4.23.3,1.2.61,2.35.93,3.44l5.97,20.41h7.46l6.13-20.41c.32-1.09.63-2.22.93-3.36.3-1.14.61-2.58.93-4.31.28,1.69.57,3.13.85,4.31.28,1.18.58,2.3.9,3.36l6.13,20.41h7.04l-11.53-38.65h-.21ZM26.55,376.02l-8.25-28.13h-.16l8.46-28.13,8.25,28.13h.16l-8.46,28.13Z"/>
      <path class="st0" d="M119.42,366.03c.28-.95.57-2,.87-3.15.3-1.14.63-2.62.98-4.41.31,1.62.62,3.03.93,4.23.3,1.2.61,2.35.93,3.44l5.97,20.41h7.46l6.13-20.41c.32-1.09.63-2.22.93-3.36.3-1.14.61-2.58.93-4.31.28,1.69.57,3.13.85,4.31.28,1.18.58,2.3.9,3.36l6.13,20.41h7.04l-11.53-38.65h-.21l11.74-38.65h-6.88l-6.24,20.52c-.28.95-.57,2-.87,3.15-.3,1.14-.63,2.62-.98,4.41-.31-1.62-.62-3.03-.93-4.23-.3-1.2-.61-2.35-.93-3.44l-5.97-20.41h-7.46l-6.13,20.41c-.32,1.09-.63,2.22-.93,3.36-.3,1.14-.61,2.58-.93,4.31-.28-1.69-.57-3.13-.85-4.31-.28-1.18-.58-2.3-.9-3.36l-6.13-20.41h-7.04l11.53,38.65h.21l-11.74,38.65h6.88l6.24-20.52ZM132.9,319.76l8.25,28.13h.16l-8.46,28.13-8.25-28.13h-.16l8.46-28.13Z"/>
      <path class="st0" d="M66.32,443.44c.32-1.06.62-2.18.9-3.36.28-1.18.56-2.62.85-4.31.31,1.73.62,3.16.93,4.31.3,1.14.61,2.27.93,3.36l6.13,20.41h7.46l5.97-20.41c.32-1.09.63-2.24.93-3.44.3-1.2.61-2.61.93-4.23.35,1.8.68,3.27.98,4.41.3,1.14.59,2.19.87,3.15l6.24,20.52h6.88l-11.74-38.65,11.74-38.65h-6.88l-6.24,20.52c-.28.95-.57,2-.87,3.15-.3,1.14-.63,2.62-.98,4.41-.31-1.62-.62-3.03-.93-4.23-.3-1.2-.61-2.35-.93-3.44l-5.97-20.41h-7.46l-6.13,20.41c-.32,1.09-.63,2.22-.93,3.36-.3,1.14-.61,2.58-.93,4.31-.28-1.69-.57-3.13-.85-4.31-.28-1.18-.58-2.3-.9-3.36l-6.13-20.41h-7.04l11.53,38.65-11.53,38.65h7.04l6.13-20.41ZM79.75,397.07l8.25,28.13-8.25,28.13-8.46-28.13,8.46-28.13Z"/>
      <path class="st0" d="M41.62,502.51l11.53-38.65h-7.04l-6.13,20.41c-.32,1.06-.62,2.18-.9,3.36-.28,1.18-.56,2.62-.85,4.31-.31-1.73-.62-3.16-.93-4.31-.3-1.14-.61-2.27-.93-3.36l-6.13-20.41h-7.46l-5.97,20.41c-.32,1.09-.63,2.24-.93,3.44-.3,1.2-.61,2.61-.93,4.23-.35-1.8-.68-3.27-.98-4.41-.3-1.14-.59-2.19-.87-3.15l-6.24-20.52H0l11.74,38.65h-.21L0,541.16h7.04l6.13-20.41c.32-1.06.62-2.18.9-3.36.28-1.18.56-2.62.85-4.31.31,1.73.62,3.16.93,4.31.3,1.14.61,2.27.93,3.36l6.13,20.41h7.46l5.97-20.41c.32-1.09.63-2.24.93-3.44.3-1.2.61-2.61.93-4.23.35,1.8.68,3.27.98,4.41.3,1.14.59,2.19.87,3.15l6.24,20.52h6.88l-11.74-38.65h.21ZM34.85,502.51l-8.25,28.13-8.46-28.13h.16l8.25-28.13,8.46,28.13h-.16Z"/>
      <path class="st0" d="M212.6,541.16h-7.04l-6.13,20.41c-.32,1.06-.62,2.18-.9,3.36-.28,1.18-.56,2.62-.85,4.31-.31-1.73-.62-3.16-.93-4.31-.3-1.14-.61-2.27-.93-3.36l-6.13-20.41h-7.46l-5.97,20.41c-.32,1.09-.63,2.24-.93,3.44-.3,1.2-.61,2.61-.93,4.23-.35-1.8-.68-3.27-.98-4.41-.3-1.14-.59-2.19-.87-3.15l-6.24-20.52h-6.88l11.74,38.65-11.74,38.65h6.88l6.24-20.52c.28-.95.57-2,.87-3.15.3-1.14.63-2.62.98-4.41.31,1.62.62,3.03.93,4.23.3,1.2.61,2.35.93,3.44l5.97,20.41h7.46l6.13-20.41c.32-1.09.63-2.22.93-3.36.3-1.14.61-2.58.93-4.31.28,1.69.57,3.13.85,4.31.28,1.18.58,2.3.9,3.36l6.13,20.41h7.04l-11.53-38.65,11.53-38.65ZM186,607.94l-8.25-28.13,8.25-28.13,8.46,28.13-8.46,28.13Z"/>
      <path class="st0" d="M119.47,520.75c.32-1.06.62-2.18.9-3.36.28-1.18.56-2.62.85-4.31.31,1.73.62,3.16.93,4.31.3,1.14.61,2.27.93,3.36l6.13,20.41h7.46l5.97-20.41c.32-1.09.63-2.24.93-3.44.3-1.2.61-2.61.93-4.23.35,1.8.68,3.27.98,4.41.3,1.14.59,2.19.87,3.15l6.24,20.52h6.88l-11.74-38.65h.21l11.53-38.65h-7.04l-6.13,20.41c-.32,1.06-.62,2.18-.9,3.36-.28,1.18-.56,2.62-.85,4.31-.31-1.73-.62-3.16-.93-4.31-.3-1.14-.61-2.27-.93-3.36l-6.13-20.41h-7.46l-5.97,20.41c-.32,1.09-.63,2.24-.93,3.44-.3,1.2-.61,2.61-.93,4.23-.35-1.8-.68-3.27-.98-4.41-.3-1.14-.59-2.19-.87-3.15l-6.24-20.52h-6.88l11.74,38.65h-.21l-11.53,38.65h7.04l6.13-20.41ZM124.6,502.51l8.25-28.13,8.46,28.13h-.16l-8.25,28.13-8.46-28.13h.16Z"/>
      <path class="st0" d="M66.27,597.95c.28-.95.57-2,.87-3.15.3-1.14.63-2.62.98-4.41.31,1.62.62,3.03.93,4.23.3,1.2.61,2.35.93,3.44l5.97,20.41h7.46l6.13-20.41c.32-1.09.63-2.22.93-3.36.3-1.14.61-2.58.93-4.31.28,1.69.57,3.13.85,4.31.28,1.18.58,2.3.9,3.36l6.13,20.41h7.04l-11.53-38.65,11.53-38.65h-7.04l-6.13,20.41c-.32,1.06-.62,2.18-.9,3.36-.28,1.18-.56,2.62-.85,4.31-.31-1.73-.62-3.16-.93-4.31-.3-1.14-.61-2.27-.93-3.36l-6.13-20.41h-7.46l-5.97,20.41c-.32,1.09-.63,2.24-.93,3.44-.3,1.2-.61,2.61-.93,4.23-.35-1.8-.68-3.27-.98-4.41-.3-1.14-.59-2.19-.87-3.15l-6.24-20.52h-6.88l11.74,38.65-11.74,38.65h6.88l6.24-20.52ZM79.7,551.68l8.46,28.13-8.46,28.13-8.25-28.13,8.25-28.13Z"/>
      <path class="st0" d="M225.72,366.03c.28-.95.57-2,.87-3.15.3-1.14.63-2.62.98-4.41.31,1.62.62,3.03.93,4.23.3,1.2.61,2.35.93,3.44l5.97,20.41h7.46l6.13-20.41c.32-1.09.63-2.22.93-3.36.3-1.14.61-2.58.93-4.31.28,1.69.57,3.13.85,4.31.28,1.18.58,2.3.9,3.36l6.13,20.41h7.04l-11.53-38.65h-.21l11.74-38.65h-6.88l-6.24,20.52c-.28.95-.57,2-.87,3.15-.3,1.14-.63,2.62-.98,4.41-.31-1.62-.62-3.03-.93-4.23-.3-1.2-.61-2.35-.93-3.44l-5.97-20.41h-7.46l-6.13,20.41c-.32,1.09-.63,2.22-.93,3.36-.3,1.14-.61,2.58-.93,4.31-.28-1.69-.57-3.13-.85-4.31-.28-1.18-.58-2.3-.9-3.36l-6.13-20.41h-7.04l11.53,38.65h.21l-11.74,38.65h6.88l6.24-20.52ZM239.2,319.76l8.25,28.13h.16l-8.46,28.13-8.25-28.13h-.16l8.46-28.13Z"/>
      <path class="st0" d="M318.9,386.54h-6.88l-6.24,20.52c-.28.95-.57,2-.87,3.15-.3,1.14-.63,2.62-.98,4.41-.31-1.62-.62-3.03-.93-4.23-.3-1.2-.61-2.35-.93-3.44l-5.97-20.41h-7.46l-6.13,20.41c-.32,1.09-.63,2.22-.93,3.36-.3,1.14-.61,2.58-.93,4.31-.28-1.69-.57-3.13-.85-4.31-.28-1.18-.58-2.3-.9-3.36l-6.13-20.41h-7.04l11.53,38.65-11.53,38.65h7.04l6.13-20.41c.32-1.06.62-2.18.9-3.36.28-1.18.56-2.62.85-4.31.31,1.73.62,3.16.93,4.31.3,1.14.61,2.27.93,3.36l6.13,20.41h7.46l5.97-20.41c.32-1.09.63-2.24.93-3.44.3-1.2.61-2.61.93-4.23.35,1.8.68,3.27.98,4.41.3,1.14.59,2.19.87,3.15l6.24,20.52h6.88l-11.74-38.65,11.74-38.65ZM292.35,453.33l-8.46-28.13,8.46-28.13,8.25,28.13-8.25,28.13Z"/>
      <path class="st0" d="M360.52,502.51l11.53-38.65h-7.04l-6.13,20.41c-.32,1.06-.62,2.18-.9,3.36-.28,1.18-.56,2.62-.85,4.31-.31-1.73-.62-3.16-.93-4.31-.3-1.14-.61-2.27-.93-3.36l-6.13-20.41h-7.46l-5.97,20.41c-.32,1.09-.63,2.24-.93,3.44-.3,1.2-.61,2.61-.93,4.23-.35-1.8-.68-3.27-.98-4.41-.3-1.14-.59-2.19-.87-3.15l-6.24-20.52h-6.88l11.74,38.65h-.21l-11.53,38.65h7.04l6.13-20.41c.32-1.06.62-2.18.9-3.36.28-1.18.56-2.62.85-4.31.31,1.73.62,3.16.93,4.31.3,1.14.61,2.27.93,3.36l6.13,20.41h7.46l5.97-20.41c.32-1.09.63-2.24.93-3.44.3-1.2.61-2.61.93-4.23.35,1.8.68,3.27.98,4.41.3,1.14.59,2.19.87,3.15l6.24,20.52h6.88l-11.74-38.65h.21ZM353.75,502.51l-8.25,28.13-8.46-28.13h.16l8.25-28.13,8.46,28.13h-.16Z"/>
      <path class="st0" d="M254.22,502.51l11.53-38.65h-7.04l-6.13,20.41c-.32,1.06-.62,2.18-.9,3.36-.28,1.18-.56,2.62-.85,4.31-.31-1.73-.62-3.16-.93-4.31-.3-1.14-.61-2.27-.93-3.36l-6.13-20.41h-7.46l-5.97,20.41c-.32,1.09-.63,2.24-.93,3.44-.3,1.2-.61,2.61-.93,4.23-.35-1.8-.68-3.27-.98-4.41-.3-1.14-.59-2.19-.87-3.15l-6.24-20.52h-6.88l11.74,38.65h-.21l-11.53,38.65h7.04l6.13-20.41c.32-1.06.62-2.18.9-3.36.28-1.18.56-2.62.85-4.31.31,1.73.62,3.16.93,4.31.3,1.14.61,2.27.93,3.36l6.13,20.41h7.46l5.97-20.41c.32-1.09.63-2.24.93-3.44.3-1.2.61-2.61.93-4.23.35,1.8.68,3.27.98,4.41.3,1.14.59,2.19.87,3.15l6.24,20.52h6.88l-11.74-38.65h.21ZM247.45,502.51l-8.25,28.13-8.46-28.13h.16l8.25-28.13,8.46,28.13h-.16Z"/>
      <path class="st0" d="M172.62,443.44c.32-1.06.62-2.18.9-3.36.28-1.18.56-2.62.85-4.31.31,1.73.62,3.16.93,4.31.3,1.14.61,2.27.93,3.36l6.13,20.41h7.46l5.97-20.41c.32-1.09.63-2.24.93-3.44.3-1.2.61-2.61.93-4.23.35,1.8.68,3.27.98,4.41.3,1.14.59,2.19.87,3.15l6.24,20.52h6.88l-11.74-38.65,11.74-38.65h-6.88l-6.24,20.52c-.28.95-.57,2-.87,3.15-.3,1.14-.63,2.62-.98,4.41-.31-1.62-.62-3.03-.93-4.23-.3-1.2-.61-2.35-.93-3.44l-5.97-20.41h-7.46l-6.13,20.41c-.32,1.09-.63,2.22-.93,3.36-.3,1.14-.61,2.58-.93,4.31-.28-1.69-.57-3.13-.85-4.31-.28-1.18-.58-2.3-.9-3.36l-6.13-20.41h-7.04l11.53,38.65-11.53,38.65h7.04l6.13-20.41ZM186.05,397.07l8.25,28.13-8.25,28.13-8.46-28.13,8.46-28.13Z"/>
      <path class="st0" d="M425.2,541.16h-7.04l-6.13,20.41c-.32,1.06-.62,2.18-.9,3.36-.28,1.18-.56,2.62-.85,4.31-.31-1.73-.62-3.16-.93-4.31-.3-1.14-.61-2.27-.93-3.36l-6.13-20.41h-7.46l-5.97,20.41c-.32,1.09-.63,2.24-.93,3.44-.3,1.2-.61,2.61-.93,4.23-.35-1.8-.68-3.27-.98-4.41-.3-1.14-.59-2.19-.87-3.15l-6.24-20.52h-6.88l11.74,38.65-11.74,38.65h6.88l6.24-20.52c.28-.95.57-2,.87-3.15.3-1.14.63-2.62.98-4.41.31,1.62.62,3.03.93,4.23.3,1.2.61,2.35.93,3.44l5.97,20.41h7.46l6.13-20.41c.32-1.09.63-2.22.93-3.36.3-1.14.61-2.58.93-4.31.28,1.69.57,3.13.85,4.31.28,1.18.58,2.3.9,3.36l6.13,20.41h7.04l-11.53-38.65,11.53-38.65ZM398.6,607.94l-8.25-28.13,8.25-28.13,8.46,28.13-8.46,28.13Z"/>
      <path class="st0" d="M318.9,541.16h-7.04l-6.13,20.41c-.32,1.06-.62,2.18-.9,3.36-.28,1.18-.56,2.62-.85,4.31-.31-1.73-.62-3.16-.93-4.31-.3-1.14-.61-2.27-.93-3.36l-6.13-20.41h-7.46l-5.97,20.41c-.32,1.09-.63,2.24-.93,3.44-.3,1.2-.61,2.61-.93,4.23-.35-1.8-.68-3.27-.98-4.41-.3-1.14-.59-2.19-.87-3.15l-6.24-20.52h-6.88l11.74,38.65-11.74,38.65h6.88l6.24-20.52c.28-.95.57-2,.87-3.15.3-1.14.63-2.62.98-4.41.31,1.62.62,3.03.93,4.23.3,1.2.61,2.35.93,3.44l5.97,20.41h7.46l6.13-20.41c.32-1.09.63-2.22.93-3.36.3-1.14.61-2.58.93-4.31.28,1.69.57,3.13.85,4.31.28,1.18.58,2.3.9,3.36l6.13,20.41h7.04l-11.53-38.65,11.53-38.65ZM292.3,607.94l-8.25-28.13,8.25-28.13,8.46,28.13-8.46,28.13Z"/>
      <path class="st0" d="M330.64,347.89l-11.74,38.65h6.88l6.24-20.52c.28-.95.57-2,.87-3.15.3-1.14.63-2.62.98-4.41.31,1.62.62,3.03.93,4.23.3,1.2.61,2.35.93,3.44l5.97,20.41h7.46l6.13-20.41c.32-1.09.63-2.22.93-3.36.3-1.14.61-2.58.93-4.31.28,1.69.57,3.13.85,4.31.28,1.18.58,2.3.9,3.36l6.13,20.41h7.04l-11.53-38.65h-.21l11.74-38.65h-6.88l-6.24,20.52c-.28.95-.57,2-.87,3.15-.3,1.14-.63,2.62-.98,4.41-.31-1.62-.62-3.03-.93-4.23-.3-1.2-.61-2.35-.93-3.44l-5.97-20.41h-7.46l-6.13,20.41c-.32,1.09-.63,2.22-.93,3.36-.3,1.14-.61,2.58-.93,4.31-.28-1.69-.57-3.13-.85-4.31-.28-1.18-.58-2.3-.9-3.36l-6.13-20.41h-7.04l11.53,38.65h.21ZM345.5,319.76l8.25,28.13h.16l-8.46,28.13-8.25-28.13h-.16l8.46-28.13Z"/>
      <path class="st0" d="M97.32,347.97c0-11.53-7.94-19.41-19.46-19.41h-13.65v38.65h14.02c11.3,0,19.09-7.88,19.09-19.25ZM71.03,360.98v-26.17h6.19c8.05,0,12.9,4.97,12.9,13.16s-4.75,13.01-12.53,13.01h-6.56Z"/>
      <path class="st0" d="M203.61,347.97c0-11.53-7.94-19.41-19.46-19.41h-13.65v38.65h14.02c11.3,0,19.09-7.88,19.09-19.25ZM177.33,360.98v-26.17h6.19c8.05,0,12.9,4.97,12.9,13.16s-4.75,13.01-12.53,13.01h-6.56Z"/>
      <path class="st0" d="M309.91,347.97c0-11.53-7.94-19.41-19.46-19.41h-13.65v38.65h14.02c11.3,0,19.09-7.88,19.09-19.25ZM283.63,360.98v-26.17h6.19c8.05,0,12.9,4.97,12.9,13.16s-4.75,13.01-12.53,13.01h-6.56Z"/>
      <path class="st0" d="M416.21,347.97c0-11.53-7.94-19.41-19.46-19.41h-13.65v38.65h14.02c11.3,0,19.09-7.88,19.09-19.25ZM389.93,360.98v-26.17h6.19c8.05,0,12.9,4.97,12.9,13.16s-4.75,13.01-12.53,13.01h-6.56Z"/>
      <path class="st0" d="M522.51,347.97c0-11.53-7.94-19.41-19.46-19.41h-13.65v38.65h14.02c11.3,0,19.09-7.88,19.09-19.25ZM496.23,360.98v-26.17h6.19c8.05,0,12.9,4.97,12.9,13.16s-4.75,13.01-12.53,13.01h-6.56Z"/>
      <path class="st0" d="M609.35,328.56h-13.65v38.65h14.02c11.3,0,19.09-7.88,19.09-19.25s-7.94-19.41-19.46-19.41ZM609.09,360.98h-6.56v-26.17h6.19c8.05,0,12.9,4.97,12.9,13.16s-4.75,13.01-12.53,13.01Z"/>
      <path class="st0" d="M715.65,328.56h-13.65v38.65h14.02c11.3,0,19.09-7.88,19.09-19.25s-7.94-19.41-19.46-19.41ZM715.39,360.98h-6.56v-26.17h6.19c8.05,0,12.9,4.97,12.9,13.16s-4.75,13.01-12.53,13.01Z"/>
      <path class="st0" d="M821.95,328.56h-13.65v38.65h14.02c11.3,0,19.09-7.88,19.09-19.25s-7.94-19.41-19.46-19.41ZM821.69,360.98h-6.56v-26.17h6.19c8.05,0,12.9,4.97,12.9,13.16s-4.75,13.01-12.53,13.01Z"/>
      <path class="st0" d="M755.15,425.12c0,11.53,7.94,19.41,19.46,19.41h13.65v-38.65h-14.02c-11.3,0-19.09,7.88-19.09,19.25ZM781.43,412.11v26.17h-6.19c-8.05,0-12.9-4.97-12.9-13.16s4.75-13.01,12.53-13.01h6.56Z"/>
      <path class="st0" d="M648.85,425.12c0,11.53,7.94,19.41,19.46,19.41h13.65v-38.65h-14.02c-11.3,0-19.09,7.88-19.09,19.25ZM675.14,412.11v26.17h-6.19c-8.05,0-12.9-4.97-12.9-13.16s4.75-13.01,12.53-13.01h6.56Z"/>
      <path class="st0" d="M542.55,425.12c0,11.53,7.94,19.41,19.46,19.41h13.65v-38.65h-14.02c-11.3,0-19.09,7.88-19.09,19.25ZM568.84,412.11v26.17h-6.19c-8.05,0-12.9-4.97-12.9-13.16s4.75-13.01,12.53-13.01h6.56Z"/>
      <path class="st0" d="M436.25,425.12c0,11.53,7.94,19.41,19.46,19.41h13.65v-38.65h-14.02c-11.3,0-19.09,7.88-19.09,19.25ZM462.54,412.11v26.17h-6.19c-8.05,0-12.9-4.97-12.9-13.16s4.75-13.01,12.53-13.01h6.56Z"/>
      <path class="st0" d="M329.95,425.12c0,11.53,7.94,19.41,19.46,19.41h13.65v-38.65h-14.02c-11.3,0-19.09,7.88-19.09,19.25ZM356.24,412.11v26.17h-6.19c-8.05,0-12.9-4.97-12.9-13.16s4.75-13.01,12.53-13.01h6.56Z"/>
      <path class="st0" d="M223.65,425.12c0,11.53,7.94,19.41,19.46,19.41h13.65v-38.65h-14.02c-11.3,0-19.09,7.88-19.09,19.25ZM249.94,412.11v26.17h-6.19c-8.05,0-12.9-4.97-12.9-13.16s4.75-13.01,12.53-13.01h6.56Z"/>
      <path class="st0" d="M136.81,444.52h13.65v-38.65h-14.02c-11.3,0-19.09,7.88-19.09,19.25s7.94,19.41,19.46,19.41ZM137.08,412.11h6.56v26.17h-6.19c-8.05,0-12.9-4.97-12.9-13.16s4.75-13.01,12.53-13.01Z"/>
      <path class="st0" d="M30.52,444.52h13.65v-38.65h-14.02c-11.3,0-19.09,7.88-19.09,19.25s7.94,19.41,19.46,19.41ZM30.78,412.11h6.56v26.17h-6.19c-8.05,0-12.9-4.97-12.9-13.16s4.75-13.01,12.53-13.01Z"/>
      <path class="st0" d="M97.32,502.58c0-11.53-7.94-19.41-19.46-19.41h-13.65v38.65h14.02c11.3,0,19.09-7.88,19.09-19.25ZM71.03,515.59v-26.17h6.19c8.05,0,12.9,4.97,12.9,13.16s-4.75,13.01-12.53,13.01h-6.56Z"/>
      <path class="st0" d="M184.15,483.18h-13.65v38.65h14.02c11.3,0,19.09-7.88,19.09-19.25s-7.94-19.41-19.46-19.41ZM183.89,515.59h-6.56v-26.17h6.19c8.05,0,12.9,4.97,12.9,13.16s-4.75,13.01-12.53,13.01Z"/>
      <path class="st0" d="M290.45,483.18h-13.65v38.65h14.02c11.3,0,19.09-7.88,19.09-19.25s-7.94-19.41-19.46-19.41ZM290.19,515.59h-6.56v-26.17h6.19c8.05,0,12.9,4.97,12.9,13.16s-4.75,13.01-12.53,13.01Z"/>
      <path class="st0" d="M396.75,483.18h-13.65v38.65h14.02c11.3,0,19.09-7.88,19.09-19.25s-7.94-19.41-19.46-19.41ZM396.49,515.59h-6.56v-26.17h6.19c8.05,0,12.9,4.97,12.9,13.16s-4.75,13.01-12.53,13.01Z"/>
      <path class="st0" d="M503.05,483.18h-13.65v38.65h14.02c11.3,0,19.09-7.88,19.09-19.25s-7.94-19.41-19.46-19.41ZM502.79,515.59h-6.56v-26.17h6.19c8.05,0,12.9,4.97,12.9,13.16s-4.75,13.01-12.53,13.01Z"/>
      <path class="st0" d="M609.35,483.18h-13.65v38.65h14.02c11.3,0,19.09-7.88,19.09-19.25s-7.94-19.41-19.46-19.41ZM609.09,515.59h-6.56v-26.17h6.19c8.05,0,12.9,4.97,12.9,13.16s-4.75,13.01-12.53,13.01Z"/>
      <path class="st0" d="M715.65,483.18h-13.65v38.65h14.02c11.3,0,19.09-7.88,19.09-19.25s-7.94-19.41-19.46-19.41ZM715.39,515.59h-6.56v-26.17h6.19c8.05,0,12.9,4.97,12.9,13.16s-4.75,13.01-12.53,13.01Z"/>
      <path class="st0" d="M821.95,483.18h-13.65v38.65h14.02c11.3,0,19.09-7.88,19.09-19.25s-7.94-19.41-19.46-19.41ZM821.69,515.59h-6.56v-26.17h6.19c8.05,0,12.9,4.97,12.9,13.16s-4.75,13.01-12.53,13.01Z"/>
      <path class="st0" d="M755.15,579.73c0,11.53,7.94,19.41,19.46,19.41h13.65v-38.65h-14.02c-11.3,0-19.09,7.88-19.09,19.25ZM781.43,566.72v26.17h-6.19c-8.05,0-12.9-4.97-12.9-13.16s4.75-13.01,12.53-13.01h6.56Z"/>
      <path class="st0" d="M648.85,579.73c0,11.53,7.94,19.41,19.46,19.41h13.65v-38.65h-14.02c-11.3,0-19.09,7.88-19.09,19.25ZM675.14,566.72v26.17h-6.19c-8.05,0-12.9-4.97-12.9-13.16s4.75-13.01,12.53-13.01h6.56Z"/>
      <path class="st0" d="M542.55,579.73c0,11.53,7.94,19.41,19.46,19.41h13.65v-38.65h-14.02c-11.3,0-19.09,7.88-19.09,19.25ZM568.84,566.72v26.17h-6.19c-8.05,0-12.9-4.97-12.9-13.16s4.75-13.01,12.53-13.01h6.56Z"/>
      <path class="st0" d="M436.25,579.73c0,11.53,7.94,19.41,19.46,19.41h13.65v-38.65h-14.02c-11.3,0-19.09,7.88-19.09,19.25ZM462.54,566.72v26.17h-6.19c-8.05,0-12.9-4.97-12.9-13.16s4.75-13.01,12.53-13.01h6.56Z"/>
      <path class="st0" d="M329.95,579.73c0,11.53,7.94,19.41,19.46,19.41h13.65v-38.65h-14.02c-11.3,0-19.09,7.88-19.09,19.25ZM356.24,566.72v26.17h-6.19c-8.05,0-12.9-4.97-12.9-13.16s4.75-13.01,12.53-13.01h6.56Z"/>
      <path class="st0" d="M223.65,579.73c0,11.53,7.94,19.41,19.46,19.41h13.65v-38.65h-14.02c-11.3,0-19.09,7.88-19.09,19.25ZM249.94,566.72v26.17h-6.19c-8.05,0-12.9-4.97-12.9-13.16s4.75-13.01,12.53-13.01h6.56Z"/>
      <path class="st0" d="M117.35,579.73c0,11.53,7.94,19.41,19.46,19.41h13.65v-38.65h-14.02c-11.3,0-19.09,7.88-19.09,19.25ZM143.64,566.72v26.17h-6.19c-8.05,0-12.9-4.97-12.9-13.16s4.75-13.01,12.53-13.01h6.56Z"/>
      <path class="st0" d="M30.52,599.14h13.65v-38.65h-14.02c-11.3,0-19.09,7.88-19.09,19.25s7.94,19.41,19.46,19.41ZM30.78,566.72h6.56v26.17h-6.19c-8.05,0-12.9-4.97-12.9-13.16s4.75-13.01,12.53-13.01Z"/>
      <path class="st0" d="M573.12,657.12l11.53-38.65h-7.04l-6.13,20.41c-.32,1.06-.62,2.18-.9,3.36-.28,1.18-.56,2.62-.85,4.31-.31-1.73-.62-3.16-.93-4.31-.3-1.14-.61-2.27-.93-3.36l-6.13-20.41h-7.46l-5.97,20.41c-.32,1.09-.63,2.24-.93,3.44-.3,1.2-.61,2.61-.93,4.23-.35-1.8-.68-3.27-.98-4.41-.3-1.14-.59-2.19-.87-3.15l-6.24-20.52h-6.88l11.74,38.65h-.21l-11.53,38.65h7.04l6.13-20.41c.32-1.06.62-2.18.9-3.36.28-1.18.56-2.62.85-4.31.31,1.73.62,3.16.93,4.31.3,1.14.61,2.27.93,3.36l6.13,20.41h7.46l5.97-20.41c.32-1.09.63-2.24.93-3.44.3-1.2.61-2.61.93-4.23.35,1.8.68,3.27.98,4.41.3,1.14.59,2.19.87,3.15l6.24,20.52h6.88l-11.74-38.65h.21ZM566.35,657.12l-8.25,28.13-8.46-28.13h.16l8.25-28.13,8.46,28.13h-.16Z"/>
      <path class="st0" d="M466.82,657.12l11.53-38.65h-7.04l-6.13,20.41c-.32,1.06-.62,2.18-.9,3.36-.28,1.18-.56,2.62-.85,4.31-.31-1.73-.62-3.16-.93-4.31-.3-1.14-.61-2.27-.93-3.36l-6.13-20.41h-7.46l-5.97,20.41c-.32,1.09-.63,2.24-.93,3.44-.3,1.2-.61,2.61-.93,4.23-.35-1.8-.68-3.27-.98-4.41-.3-1.14-.59-2.19-.87-3.15l-6.24-20.52h-6.88l11.74,38.65h-.21l-11.53,38.65h7.04l6.13-20.41c.32-1.06.62-2.18.9-3.36.28-1.18.56-2.62.85-4.31.31,1.73.62,3.16.93,4.31.3,1.14.61,2.27.93,3.36l6.13,20.41h7.46l5.97-20.41c.32-1.09.63-2.24.93-3.44.3-1.2.61-2.61.93-4.23.35,1.8.68,3.27.98,4.41.3,1.14.59,2.19.87,3.15l6.24,20.52h6.88l-11.74-38.65h.21ZM460.05,657.12l-8.25,28.13-8.46-28.13h.16l8.25-28.13,8.46,28.13h-.16Z"/>
      <path class="st0" d="M624.63,716.19c-.32,1.06-.62,2.18-.9,3.36-.28,1.18-.56,2.62-.85,4.31-.31-1.73-.62-3.16-.93-4.31-.3-1.14-.61-2.27-.93-3.36l-6.13-20.41h-7.46l-5.97,20.41c-.32,1.09-.63,2.24-.93,3.44-.3,1.2-.61,2.61-.93,4.23-.35-1.8-.68-3.27-.98-4.41-.3-1.14-.59-2.19-.87-3.15l-6.24-20.52h-6.88l11.74,38.65-11.74,38.65h6.88l6.24-20.52c.28-.95.57-2,.87-3.15.3-1.14.63-2.62.98-4.41.31,1.62.62,3.03.93,4.23.3,1.2.61,2.35.93,3.44l5.97,20.41h7.46l6.13-20.41c.32-1.09.63-2.22.93-3.36.3-1.14.61-2.58.93-4.31.28,1.69.57,3.13.85,4.31.28,1.18.58,2.3.9,3.36l6.13,20.41h7.04l-11.53-38.65,11.53-38.65h-7.04l-6.13,20.41ZM611.19,762.56l-8.25-28.13,8.25-28.13,8.46,28.13-8.46,28.13Z"/>
      <path class="st0" d="M518.33,716.19c-.32,1.06-.62,2.18-.9,3.36-.28,1.18-.56,2.62-.85,4.31-.31-1.73-.62-3.16-.93-4.31-.3-1.14-.61-2.27-.93-3.36l-6.13-20.41h-7.46l-5.97,20.41c-.32,1.09-.63,2.24-.93,3.44-.3,1.2-.61,2.61-.93,4.23-.35-1.8-.68-3.27-.98-4.41-.3-1.14-.59-2.19-.87-3.15l-6.24-20.52h-6.88l11.74,38.65-11.74,38.65h6.88l6.24-20.52c.28-.95.57-2,.87-3.15.3-1.14.63-2.62.98-4.41.31,1.62.62,3.03.93,4.23.3,1.2.61,2.35.93,3.44l5.97,20.41h7.46l6.13-20.41c.32-1.09.63-2.22.93-3.36.3-1.14.61-2.58.93-4.31.28,1.69.57,3.13.85,4.31.28,1.18.58,2.3.9,3.36l6.13,20.41h7.04l-11.53-38.65,11.53-38.65h-7.04l-6.13,20.41ZM504.9,762.56l-8.25-28.13,8.25-28.13,8.46,28.13-8.46,28.13Z"/>
      <path class="st0" d="M784.08,638.88c-.32,1.06-.62,2.18-.9,3.36-.28,1.18-.56,2.62-.85,4.31-.31-1.73-.62-3.16-.93-4.31-.3-1.14-.61-2.27-.93-3.36l-6.13-20.41h-7.46l-5.97,20.41c-.32,1.09-.63,2.24-.93,3.44-.3,1.2-.61,2.61-.93,4.23-.35-1.8-.68-3.27-.98-4.41-.3-1.14-.59-2.19-.87-3.15l-6.24-20.52h-6.88l11.74,38.65h-.21l-11.53,38.65h7.04l6.13-20.41c.32-1.06.62-2.18.9-3.36.28-1.18.56-2.62.85-4.31.31,1.73.62,3.16.93,4.31.3,1.14.61,2.27.93,3.36l6.13,20.41h7.46l5.97-20.41c.32-1.09.63-2.24.93-3.44.3-1.2.61-2.61.93-4.23.35,1.8.68,3.27.98,4.41.3,1.14.59,2.19.87,3.15l6.24,20.52h6.88l-11.74-38.65h.21l11.53-38.65h-7.04l-6.13,20.41ZM778.95,657.12l-8.25,28.13-8.46-28.13h.16l8.25-28.13,8.46,28.13h-.16Z"/>
      <path class="st0" d="M679.42,657.12l11.53-38.65h-7.04l-6.13,20.41c-.32,1.06-.62,2.18-.9,3.36-.28,1.18-.56,2.62-.85,4.31-.31-1.73-.62-3.16-.93-4.31-.3-1.14-.61-2.27-.93-3.36l-6.13-20.41h-7.46l-5.97,20.41c-.32,1.09-.63,2.24-.93,3.44-.3,1.2-.61,2.61-.93,4.23-.35-1.8-.68-3.27-.98-4.41-.3-1.14-.59-2.19-.87-3.15l-6.24-20.52h-6.88l11.74,38.65h-.21l-11.53,38.65h7.04l6.13-20.41c.32-1.06.62-2.18.9-3.36.28-1.18.56-2.62.85-4.31.31,1.73.62,3.16.93,4.31.3,1.14.61,2.27.93,3.36l6.13,20.41h7.46l5.97-20.41c.32-1.09.63-2.24.93-3.44.3-1.2.61-2.61.93-4.23.35,1.8.68,3.27.98,4.41.3,1.14.59,2.19.87,3.15l6.24,20.52h6.88l-11.74-38.65h.21ZM672.65,657.12l-8.25,28.13-8.46-28.13h.16l8.25-28.13,8.46,28.13h-.16Z"/>
      <path class="st0" d="M730.93,716.19c-.32,1.06-.62,2.18-.9,3.36-.28,1.18-.56,2.62-.85,4.31-.31-1.73-.62-3.16-.93-4.31-.3-1.14-.61-2.27-.93-3.36l-6.13-20.41h-7.46l-5.97,20.41c-.32,1.09-.63,2.24-.93,3.44-.3,1.2-.61,2.61-.93,4.23-.35-1.8-.68-3.27-.98-4.41-.3-1.14-.59-2.19-.87-3.15l-6.24-20.52h-6.88l11.74,38.65-11.74,38.65h6.88l6.24-20.52c.28-.95.57-2,.87-3.15.3-1.14.63-2.62.98-4.41.31,1.62.62,3.03.93,4.23.3,1.2.61,2.35.93,3.44l5.97,20.41h7.46l6.13-20.41c.32-1.09.63-2.22.93-3.36.3-1.14.61-2.58.93-4.31.28,1.69.57,3.13.85,4.31.28,1.18.58,2.3.9,3.36l6.13,20.41h7.04l-11.53-38.65,11.53-38.65h-7.04l-6.13,20.41ZM717.49,762.56l-8.25-28.13,8.25-28.13,8.46,28.13-8.46,28.13Z"/>
      <path class="st0" d="M797.24,773.09h6.88l6.24-20.52c.28-.95.57-2,.87-3.15.3-1.14.63-2.62.98-4.41.31,1.62.62,3.03.92,4.23.3,1.2.61,2.35.93,3.44l5.97,20.41h7.46l6.13-20.41c.32-1.09.63-2.22.93-3.36.3-1.14.61-2.58.93-4.31.28,1.69.57,3.13.85,4.31.28,1.18.58,2.3.9,3.36l6.13,20.41h7.04l-11.53-38.65,11.53-38.65h-7.04l-6.13,20.41c-.32,1.06-.62,2.18-.9,3.36-.28,1.18-.56,2.62-.85,4.31-.31-1.73-.62-3.16-.93-4.31-.3-1.14-.61-2.27-.93-3.36l-6.13-20.41h-7.46l-5.97,20.41c-.32,1.09-.63,2.24-.93,3.44-.3,1.2-.61,2.61-.92,4.23-.35-1.8-.68-3.27-.98-4.41-.3-1.14-.59-2.19-.87-3.15l-6.24-20.52h-6.88l11.74,38.65-11.74,38.65ZM823.79,706.3l8.46,28.13-8.46,28.13-8.25-28.13,8.25-28.13Z"/>
      <path class="st0" d="M147.92,657.12l11.53-38.65h-7.04l-6.13,20.41c-.32,1.06-.62,2.18-.9,3.36-.28,1.18-.56,2.62-.85,4.31-.31-1.73-.62-3.16-.93-4.31-.3-1.14-.61-2.27-.93-3.36l-6.13-20.41h-7.46l-5.97,20.41c-.32,1.09-.63,2.24-.93,3.44-.3,1.2-.61,2.61-.93,4.23-.35-1.8-.68-3.27-.98-4.41-.3-1.14-.59-2.19-.87-3.15l-6.24-20.52h-6.88l11.74,38.65h-.21l-11.53,38.65h7.04l6.13-20.41c.32-1.06.62-2.18.9-3.36.28-1.18.56-2.62.85-4.31.31,1.73.62,3.16.93,4.31.3,1.14.61,2.27.93,3.36l6.13,20.41h7.46l5.97-20.41c.32-1.09.63-2.24.93-3.44.3-1.2.61-2.61.93-4.23.35,1.8.68,3.27.98,4.41.3,1.14.59,2.19.87,3.15l6.24,20.52h6.88l-11.74-38.65h.21ZM141.15,657.12l-8.25,28.13-8.46-28.13h.16l8.25-28.13,8.46,28.13h-.16Z"/>
      <path class="st0" d="M41.62,657.12l11.53-38.65h-7.04l-6.13,20.41c-.32,1.06-.62,2.18-.9,3.36-.28,1.18-.56,2.62-.85,4.31-.31-1.73-.62-3.16-.93-4.31-.3-1.14-.61-2.27-.93-3.36l-6.13-20.41h-7.46l-5.97,20.41c-.32,1.09-.63,2.24-.93,3.44-.3,1.2-.61,2.61-.93,4.23-.35-1.8-.68-3.27-.98-4.41-.3-1.14-.59-2.19-.87-3.15l-6.24-20.52H0l11.74,38.65h-.21L0,695.78h7.04l6.13-20.41c.32-1.06.62-2.18.9-3.36.28-1.18.56-2.62.85-4.31.31,1.73.62,3.16.93,4.31.3,1.14.61,2.27.93,3.36l6.13,20.41h7.46l5.97-20.41c.32-1.09.63-2.24.93-3.44.3-1.2.61-2.61.93-4.23.35,1.8.68,3.27.98,4.41.3,1.14.59,2.19.87,3.15l6.24,20.52h6.88l-11.74-38.65h.21ZM34.85,657.12l-8.25,28.13-8.46-28.13h.16l8.25-28.13,8.46,28.13h-.16Z"/>
      <path class="st0" d="M199.43,716.19c-.32,1.06-.62,2.18-.9,3.36-.28,1.18-.56,2.62-.85,4.31-.31-1.73-.62-3.16-.93-4.31-.3-1.14-.61-2.27-.93-3.36l-6.13-20.41h-7.46l-5.97,20.41c-.32,1.09-.63,2.24-.93,3.44-.3,1.2-.61,2.61-.93,4.23-.35-1.8-.68-3.27-.98-4.41-.3-1.14-.59-2.19-.87-3.15l-6.24-20.52h-6.88l11.74,38.65-11.74,38.65h6.88l6.24-20.52c.28-.95.57-2,.87-3.15.3-1.14.63-2.62.98-4.41.31,1.62.62,3.03.93,4.23.3,1.2.61,2.35.93,3.44l5.97,20.41h7.46l6.13-20.41c.32-1.09.63-2.22.93-3.36.3-1.14.61-2.58.93-4.31.28,1.69.57,3.13.85,4.31.28,1.18.58,2.3.9,3.36l6.13,20.41h7.04l-11.53-38.65,11.53-38.65h-7.04l-6.13,20.41ZM186,762.56l-8.25-28.13,8.25-28.13,8.46,28.13-8.46,28.13Z"/>
      <path class="st0" d="M93.13,716.19c-.32,1.06-.62,2.18-.9,3.36-.28,1.18-.56,2.62-.85,4.31-.31-1.73-.62-3.16-.93-4.31-.3-1.14-.61-2.27-.93-3.36l-6.13-20.41h-7.46l-5.97,20.41c-.32,1.09-.63,2.24-.93,3.44-.3,1.2-.61,2.61-.93,4.23-.35-1.8-.68-3.27-.98-4.41-.3-1.14-.59-2.19-.87-3.15l-6.24-20.52h-6.88l11.74,38.65-11.74,38.65h6.88l6.24-20.52c.28-.95.57-2,.87-3.15.3-1.14.63-2.62.98-4.41.31,1.62.62,3.03.93,4.23.3,1.2.61,2.35.93,3.44l5.97,20.41h7.46l6.13-20.41c.32-1.09.63-2.22.93-3.36.3-1.14.61-2.58.93-4.31.28,1.69.57,3.13.85,4.31.28,1.18.58,2.3.9,3.36l6.13,20.41h7.04l-11.53-38.65,11.53-38.65h-7.04l-6.13,20.41ZM79.7,762.56l-8.25-28.13,8.25-28.13,8.46,28.13-8.46,28.13Z"/>
      <path class="st0" d="M360.52,657.12l11.53-38.65h-7.04l-6.13,20.41c-.32,1.06-.62,2.18-.9,3.36-.28,1.18-.56,2.62-.85,4.31-.31-1.73-.62-3.16-.93-4.31-.3-1.14-.61-2.27-.93-3.36l-6.13-20.41h-7.46l-5.97,20.41c-.32,1.09-.63,2.24-.93,3.44-.3,1.2-.61,2.61-.93,4.23-.35-1.8-.68-3.27-.98-4.41-.3-1.14-.59-2.19-.87-3.15l-6.24-20.52h-6.88l11.74,38.65h-.21l-11.53,38.65h7.04l6.13-20.41c.32-1.06.62-2.18.9-3.36.28-1.18.56-2.62.85-4.31.31,1.73.62,3.16.93,4.31.3,1.14.61,2.27.93,3.36l6.13,20.41h7.46l5.97-20.41c.32-1.09.63-2.24.93-3.44.3-1.2.61-2.61.93-4.23.35,1.8.68,3.27.98,4.41.3,1.14.59,2.19.87,3.15l6.24,20.52h6.88l-11.74-38.65h.21ZM353.75,657.12l-8.25,28.13-8.46-28.13h.16l8.25-28.13,8.46,28.13h-.16Z"/>
      <path class="st0" d="M254.22,657.12l11.53-38.65h-7.04l-6.13,20.41c-.32,1.06-.62,2.18-.9,3.36-.28,1.18-.56,2.62-.85,4.31-.31-1.73-.62-3.16-.93-4.31-.3-1.14-.61-2.27-.93-3.36l-6.13-20.41h-7.46l-5.97,20.41c-.32,1.09-.63,2.24-.93,3.44-.3,1.2-.61,2.61-.93,4.23-.35-1.8-.68-3.27-.98-4.41-.3-1.14-.59-2.19-.87-3.15l-6.24-20.52h-6.88l11.74,38.65h-.21l-11.53,38.65h7.04l6.13-20.41c.32-1.06.62-2.18.9-3.36.28-1.18.56-2.62.85-4.31.31,1.73.62,3.16.93,4.31.3,1.14.61,2.27.93,3.36l6.13,20.41h7.46l5.97-20.41c.32-1.09.63-2.24.93-3.44.3-1.2.61-2.61.93-4.23.35,1.8.68,3.27.98,4.41.3,1.14.59,2.19.87,3.15l6.24,20.52h6.88l-11.74-38.65h.21ZM247.45,657.12l-8.25,28.13-8.46-28.13h.16l8.25-28.13,8.46,28.13h-.16Z"/>
      <path class="st0" d="M412.03,716.19c-.32,1.06-.62,2.18-.9,3.36-.28,1.18-.56,2.62-.85,4.31-.31-1.73-.62-3.16-.93-4.31-.3-1.14-.61-2.27-.93-3.36l-6.13-20.41h-7.46l-5.97,20.41c-.32,1.09-.63,2.24-.93,3.44-.3,1.2-.61,2.61-.93,4.23-.35-1.8-.68-3.27-.98-4.41-.3-1.14-.59-2.19-.87-3.15l-6.24-20.52h-6.88l11.74,38.65-11.74,38.65h6.88l6.24-20.52c.28-.95.57-2,.87-3.15.3-1.14.63-2.62.98-4.41.31,1.62.62,3.03.93,4.23.3,1.2.61,2.35.93,3.44l5.97,20.41h7.46l6.13-20.41c.32-1.09.63-2.22.93-3.36.3-1.14.61-2.58.93-4.31.28,1.69.57,3.13.85,4.31.28,1.18.58,2.3.9,3.36l6.13,20.41h7.04l-11.53-38.65,11.53-38.65h-7.04l-6.13,20.41ZM398.6,762.56l-8.25-28.13,8.25-28.13,8.46,28.13-8.46,28.13Z"/>
      <path class="st0" d="M305.73,716.19c-.32,1.06-.62,2.18-.9,3.36-.28,1.18-.56,2.62-.85,4.31-.31-1.73-.62-3.16-.93-4.31-.3-1.14-.61-2.27-.93-3.36l-6.13-20.41h-7.46l-5.97,20.41c-.32,1.09-.63,2.24-.93,3.44-.3,1.2-.61,2.61-.93,4.23-.35-1.8-.68-3.27-.98-4.41-.3-1.14-.59-2.19-.87-3.15l-6.24-20.52h-6.88l11.74,38.65-11.74,38.65h6.88l6.24-20.52c.28-.95.57-2,.87-3.15.3-1.14.63-2.62.98-4.41.31,1.62.62,3.03.93,4.23.3,1.2.61,2.35.93,3.44l5.97,20.41h7.46l6.13-20.41c.32-1.09.63-2.22.93-3.36.3-1.14.61-2.58.93-4.31.28,1.69.57,3.13.85,4.31.28,1.18.58,2.3.9,3.36l6.13,20.41h7.04l-11.53-38.65,11.53-38.65h-7.04l-6.13,20.41ZM292.3,762.56l-8.25-28.13,8.25-28.13,8.46,28.13-8.46,28.13Z"/>
      <path class="st0" d="M77.85,637.8h-13.65v38.65h14.02c11.3,0,19.09-7.88,19.09-19.25s-7.94-19.41-19.46-19.41ZM77.59,670.21h-6.56v-26.17h6.19c8.05,0,12.9,4.97,12.9,13.16s-4.75,13.01-12.53,13.01Z"/>
      <path class="st0" d="M184.15,637.8h-13.65v38.65h14.02c11.3,0,19.09-7.88,19.09-19.25s-7.94-19.41-19.46-19.41ZM183.89,670.21h-6.56v-26.17h6.19c8.05,0,12.9,4.97,12.9,13.16s-4.75,13.01-12.53,13.01Z"/>
      <path class="st0" d="M290.45,637.8h-13.65v38.65h14.02c11.3,0,19.09-7.88,19.09-19.25s-7.94-19.41-19.46-19.41ZM290.19,670.21h-6.56v-26.17h6.19c8.05,0,12.9,4.97,12.9,13.16s-4.75,13.01-12.53,13.01Z"/>
      <path class="st0" d="M396.75,637.8h-13.65v38.65h14.02c11.3,0,19.09-7.88,19.09-19.25s-7.94-19.41-19.46-19.41ZM396.49,670.21h-6.56v-26.17h6.19c8.05,0,12.9,4.97,12.9,13.16s-4.75,13.01-12.53,13.01Z"/>
      <path class="st0" d="M503.05,637.8h-13.65v38.65h14.02c11.3,0,19.09-7.88,19.09-19.25s-7.94-19.41-19.46-19.41ZM502.79,670.21h-6.56v-26.17h6.19c8.05,0,12.9,4.97,12.9,13.16s-4.75,13.01-12.53,13.01Z"/>
      <path class="st0" d="M609.35,637.8h-13.65v38.65h14.02c11.3,0,19.09-7.88,19.09-19.25s-7.94-19.41-19.46-19.41ZM609.09,670.21h-6.56v-26.17h6.19c8.05,0,12.9,4.97,12.9,13.16s-4.75,13.01-12.53,13.01Z"/>
      <path class="st0" d="M715.65,637.8h-13.65v38.65h14.02c11.3,0,19.09-7.88,19.09-19.25s-7.94-19.41-19.46-19.41ZM715.39,670.21h-6.56v-26.17h6.19c8.05,0,12.9,4.97,12.9,13.16s-4.75,13.01-12.53,13.01Z"/>
      <path class="st0" d="M821.95,637.8h-13.65v38.65h14.02c11.3,0,19.09-7.88,19.09-19.25s-7.94-19.41-19.46-19.41ZM821.69,670.21h-6.56v-26.17h6.19c8.05,0,12.9,4.97,12.9,13.16s-4.75,13.01-12.53,13.01Z"/>
      <path class="st0" d="M77.85,789.6h-13.65v38.65h14.02c11.3,0,19.09-7.88,19.09-19.25s-7.94-19.41-19.46-19.41ZM77.59,822.02h-6.56v-26.17h6.19c8.05,0,12.9,4.97,12.9,13.16s-4.75,13.01-12.53,13.01Z"/>
      <path class="st0" d="M184.15,789.6h-13.65v38.65h14.02c11.3,0,19.09-7.88,19.09-19.25s-7.94-19.41-19.46-19.41ZM183.89,822.02h-6.56v-26.17h6.19c8.05,0,12.9,4.97,12.9,13.16s-4.75,13.01-12.53,13.01Z"/>
      <path class="st0" d="M290.45,789.6h-13.65v38.65h14.02c11.3,0,19.09-7.88,19.09-19.25s-7.94-19.41-19.46-19.41ZM290.19,822.02h-6.56v-26.17h6.19c8.05,0,12.9,4.97,12.9,13.16s-4.75,13.01-12.53,13.01Z"/>
      <path class="st0" d="M396.75,789.6h-13.65v38.65h14.02c11.3,0,19.09-7.88,19.09-19.25s-7.94-19.41-19.46-19.41ZM396.49,822.02h-6.56v-26.17h6.19c8.05,0,12.9,4.97,12.9,13.16s-4.75,13.01-12.53,13.01Z"/>
      <path class="st0" d="M503.05,789.6h-13.65v38.65h14.02c11.3,0,19.09-7.88,19.09-19.25s-7.94-19.41-19.46-19.41ZM502.79,822.02h-6.56v-26.17h6.19c8.05,0,12.9,4.97,12.9,13.16s-4.75,13.01-12.53,13.01Z"/>
      <path class="st0" d="M609.35,789.6h-13.65v38.65h14.02c11.3,0,19.09-7.88,19.09-19.25s-7.94-19.41-19.46-19.41ZM609.09,822.02h-6.56v-26.17h6.19c8.05,0,12.9,4.97,12.9,13.16s-4.75,13.01-12.53,13.01Z"/>
      <path class="st0" d="M715.65,789.6h-13.65v38.65h14.02c11.3,0,19.09-7.88,19.09-19.25s-7.94-19.41-19.46-19.41ZM715.39,822.02h-6.56v-26.17h6.19c8.05,0,12.9,4.97,12.9,13.16s-4.75,13.01-12.53,13.01Z"/>
      <path class="st0" d="M821.95,789.6h-13.65v38.65h14.02c11.3,0,19.09-7.88,19.09-19.25s-7.94-19.41-19.46-19.41ZM821.69,822.02h-6.56v-26.17h6.19c8.05,0,12.9,4.97,12.9,13.16s-4.75,13.01-12.53,13.01Z"/>
      <path class="st0" d="M755.15,734.35c0,11.53,7.94,19.41,19.46,19.41h13.65v-38.65h-14.02c-11.3,0-19.09,7.88-19.09,19.25ZM781.43,721.34v26.17h-6.19c-8.05,0-12.9-4.97-12.9-13.16s4.75-13.01,12.53-13.01h6.56Z"/>
      <path class="st0" d="M648.85,734.35c0,11.53,7.94,19.41,19.46,19.41h13.65v-38.65h-14.02c-11.3,0-19.09,7.88-19.09,19.25ZM675.14,721.34v26.17h-6.19c-8.05,0-12.9-4.97-12.9-13.16s4.75-13.01,12.53-13.01h6.56Z"/>
      <path class="st0" d="M542.55,734.35c0,11.53,7.94,19.41,19.46,19.41h13.65v-38.65h-14.02c-11.3,0-19.09,7.88-19.09,19.25ZM568.84,721.34v26.17h-6.19c-8.05,0-12.9-4.97-12.9-13.16s4.75-13.01,12.53-13.01h6.56Z"/>
      <path class="st0" d="M436.25,734.35c0,11.53,7.94,19.41,19.46,19.41h13.65v-38.65h-14.02c-11.3,0-19.09,7.88-19.09,19.25ZM462.54,721.34v26.17h-6.19c-8.05,0-12.9-4.97-12.9-13.16s4.75-13.01,12.53-13.01h6.56Z"/>
      <path class="st0" d="M329.95,734.35c0,11.53,7.94,19.41,19.46,19.41h13.65v-38.65h-14.02c-11.3,0-19.09,7.88-19.09,19.25ZM356.24,721.34v26.17h-6.19c-8.05,0-12.9-4.97-12.9-13.16s4.75-13.01,12.53-13.01h6.56Z"/>
      <path class="st0" d="M223.65,734.35c0,11.53,7.94,19.41,19.46,19.41h13.65v-38.65h-14.02c-11.3,0-19.09,7.88-19.09,19.25ZM249.94,721.34v26.17h-6.19c-8.05,0-12.9-4.97-12.9-13.16s4.75-13.01,12.53-13.01h6.56Z"/>
      <path class="st0" d="M117.35,734.35c0,11.53,7.94,19.41,19.46,19.41h13.65v-38.65h-14.02c-11.3,0-19.09,7.88-19.09,19.25ZM143.64,721.34v26.17h-6.19c-8.05,0-12.9-4.97-12.9-13.16s4.75-13.01,12.53-13.01h6.56Z"/>
      <path class="st0" d="M11.06,734.35c0,11.53,7.94,19.41,19.46,19.41h13.65v-38.65h-14.02c-11.3,0-19.09,7.88-19.09,19.25ZM37.34,721.34v26.17h-6.19c-8.05,0-12.9-4.97-12.9-13.16s4.75-13.01,12.53-13.01h6.56Z"/>
      <path class="st0" d="M571.48,793.49c-.32,1.06-.62,2.18-.9,3.36-.28,1.18-.56,2.62-.85,4.31-.31-1.73-.62-3.16-.93-4.31-.3-1.14-.61-2.27-.93-3.36l-6.13-20.41h-7.46l-5.97,20.41c-.32,1.09-.63,2.24-.93,3.44-.3,1.2-.61,2.61-.93,4.23-.35-1.8-.68-3.27-.98-4.41-.3-1.14-.59-2.19-.87-3.15l-6.24-20.52h-6.88l11.74,38.65-11.74,38.65h6.88l6.24-20.52c.28-.95.57-2,.87-3.15.3-1.14.63-2.62.98-4.41.31,1.62.62,3.03.93,4.23.3,1.2.61,2.35.93,3.44l5.97,20.41h7.46l6.13-20.41c.32-1.09.63-2.22.93-3.36.3-1.14.61-2.58.93-4.31.28,1.69.57,3.13.85,4.31.28,1.18.58,2.3.9,3.36l6.13,20.41h7.04l-11.53-38.65,11.53-38.65h-7.04l-6.13,20.41ZM558.05,839.87l-8.25-28.13,8.25-28.13,8.46,28.13-8.46,28.13Z"/>
      <path class="st0" d="M465.18,793.49c-.32,1.06-.62,2.18-.9,3.36-.28,1.18-.56,2.62-.85,4.31-.31-1.73-.62-3.16-.93-4.31-.3-1.14-.61-2.27-.93-3.36l-6.13-20.41h-7.46l-5.97,20.41c-.32,1.09-.63,2.24-.93,3.44-.3,1.2-.61,2.61-.93,4.23-.35-1.8-.68-3.27-.98-4.41-.3-1.14-.59-2.19-.87-3.15l-6.24-20.52h-6.88l11.74,38.65-11.74,38.65h6.88l6.24-20.52c.28-.95.57-2,.87-3.15.3-1.14.63-2.62.98-4.41.31,1.62.62,3.03.93,4.23.3,1.2.61,2.35.93,3.44l5.97,20.41h7.46l6.13-20.41c.32-1.09.63-2.22.93-3.36.3-1.14.61-2.58.93-4.31.28,1.69.57,3.13.85,4.31.28,1.18.58,2.3.9,3.36l6.13,20.41h7.04l-11.53-38.65,11.53-38.65h-7.04l-6.13,20.41ZM451.75,839.87l-8.25-28.13,8.25-28.13,8.46,28.13-8.46,28.13Z"/>
      <path class="st0" d="M677.78,793.49c-.32,1.06-.62,2.18-.9,3.36-.28,1.18-.56,2.62-.85,4.31-.31-1.73-.62-3.16-.93-4.31-.3-1.14-.61-2.27-.93-3.36l-6.13-20.41h-7.46l-5.97,20.41c-.32,1.09-.63,2.24-.93,3.44-.3,1.2-.61,2.61-.93,4.23-.35-1.8-.68-3.27-.98-4.41-.3-1.14-.59-2.19-.87-3.15l-6.24-20.52h-6.88l11.74,38.65-11.74,38.65h6.88l6.24-20.52c.28-.95.57-2,.87-3.15.3-1.14.63-2.62.98-4.41.31,1.62.62,3.03.93,4.23.3,1.2.61,2.35.93,3.44l5.97,20.41h7.46l6.13-20.41c.32-1.09.63-2.22.93-3.36.3-1.14.61-2.58.93-4.31.28,1.69.57,3.13.85,4.31.28,1.18.58,2.3.9,3.36l6.13,20.41h7.04l-11.53-38.65,11.53-38.65h-7.04l-6.13,20.41ZM664.34,839.87l-8.25-28.13,8.25-28.13,8.46,28.13-8.46,28.13Z"/>
      <path class="st0" d="M744.09,850.39h6.88l6.24-20.52c.28-.95.57-2,.87-3.15.3-1.14.63-2.62.98-4.41.31,1.62.62,3.03.92,4.23.3,1.2.61,2.35.93,3.44l5.97,20.41h7.46l6.13-20.41c.32-1.09.63-2.22.93-3.36.3-1.14.61-2.58.93-4.31.28,1.69.57,3.13.85,4.31.28,1.18.58,2.3.9,3.36l6.13,20.41h7.04l-11.53-38.65,11.53-38.65h-7.04l-6.13,20.41c-.32,1.06-.62,2.18-.9,3.36-.28,1.18-.56,2.62-.85,4.31-.31-1.73-.62-3.16-.93-4.31-.3-1.14-.61-2.27-.93-3.36l-6.13-20.41h-7.46l-5.97,20.41c-.32,1.09-.63,2.24-.93,3.44-.3,1.2-.61,2.61-.92,4.23-.35-1.8-.68-3.27-.98-4.41-.3-1.14-.59-2.19-.87-3.15l-6.24-20.52h-6.88l11.74,38.65-11.74,38.65ZM770.64,783.61l8.46,28.13-8.46,28.13-8.25-28.13,8.25-28.13Z"/>
      <path class="st0" d="M146.28,793.49c-.32,1.06-.62,2.18-.9,3.36-.28,1.18-.56,2.62-.85,4.31-.31-1.73-.62-3.16-.93-4.31-.3-1.14-.61-2.27-.93-3.36l-6.13-20.41h-7.46l-5.97,20.41c-.32,1.09-.63,2.24-.93,3.44-.3,1.2-.61,2.61-.93,4.23-.35-1.8-.68-3.27-.98-4.41-.3-1.14-.59-2.19-.87-3.15l-6.24-20.52h-6.88l11.74,38.65-11.74,38.65h6.88l6.24-20.52c.28-.95.57-2,.87-3.15.3-1.14.63-2.62.98-4.41.31,1.62.62,3.03.93,4.23.3,1.2.61,2.35.93,3.44l5.97,20.41h7.46l6.13-20.41c.32-1.09.63-2.22.93-3.36.3-1.14.61-2.58.93-4.31.28,1.69.57,3.13.85,4.31.28,1.18.58,2.3.9,3.36l6.13,20.41h7.04l-11.53-38.65,11.53-38.65h-7.04l-6.13,20.41ZM132.85,839.87l-8.25-28.13,8.25-28.13,8.46,28.13-8.46,28.13Z"/>
      <path class="st0" d="M39.98,793.49c-.32,1.06-.62,2.18-.9,3.36-.28,1.18-.56,2.62-.85,4.31-.31-1.73-.62-3.16-.93-4.31-.3-1.14-.61-2.27-.93-3.36l-6.13-20.41h-7.46l-5.97,20.41c-.32,1.09-.63,2.24-.93,3.44-.3,1.2-.61,2.61-.93,4.23-.35-1.8-.68-3.27-.98-4.41-.3-1.14-.59-2.19-.87-3.15l-6.24-20.52H0l11.74,38.65-11.74,38.65h6.88l6.24-20.52c.28-.95.57-2,.87-3.15.3-1.14.63-2.62.98-4.41.31,1.62.62,3.03.93,4.23.3,1.2.61,2.35.93,3.44l5.97,20.41h7.46l6.13-20.41c.32-1.09.63-2.22.93-3.36.3-1.14.61-2.58.93-4.31.28,1.69.57,3.13.85,4.31.28,1.18.58,2.3.9,3.36l6.13,20.41h7.04l-11.53-38.65,11.53-38.65h-7.04l-6.13,20.41ZM26.55,839.87l-8.25-28.13,8.25-28.13,8.46,28.13-8.46,28.13Z"/>
      <path class="st0" d="M358.88,793.49c-.32,1.06-.62,2.18-.9,3.36-.28,1.18-.56,2.62-.85,4.31-.31-1.73-.62-3.16-.93-4.31-.3-1.14-.61-2.27-.93-3.36l-6.13-20.41h-7.46l-5.97,20.41c-.32,1.09-.63,2.24-.93,3.44-.3,1.2-.61,2.61-.93,4.23-.35-1.8-.68-3.27-.98-4.41-.3-1.14-.59-2.19-.87-3.15l-6.24-20.52h-6.88l11.74,38.65-11.74,38.65h6.88l6.24-20.52c.28-.95.57-2,.87-3.15.3-1.14.63-2.62.98-4.41.31,1.62.62,3.03.93,4.23.3,1.2.61,2.35.93,3.44l5.97,20.41h7.46l6.13-20.41c.32-1.09.63-2.22.93-3.36.3-1.14.61-2.58.93-4.31.28,1.69.57,3.13.85,4.31.28,1.18.58,2.3.9,3.36l6.13,20.41h7.04l-11.53-38.65,11.53-38.65h-7.04l-6.13,20.41ZM345.45,839.87l-8.25-28.13,8.25-28.13,8.46,28.13-8.46,28.13Z"/>
      <path class="st0" d="M252.58,793.49c-.32,1.06-.62,2.18-.9,3.36-.28,1.18-.56,2.62-.85,4.31-.31-1.73-.62-3.16-.93-4.31-.3-1.14-.61-2.27-.93-3.36l-6.13-20.41h-7.46l-5.97,20.41c-.32,1.09-.63,2.24-.93,3.44-.3,1.2-.61,2.61-.93,4.23-.35-1.8-.68-3.27-.98-4.41-.3-1.14-.59-2.19-.87-3.15l-6.24-20.52h-6.88l11.74,38.65-11.74,38.65h6.88l6.24-20.52c.28-.95.57-2,.87-3.15.3-1.14.63-2.62.98-4.41.31,1.62.62,3.03.93,4.23.3,1.2.61,2.35.93,3.44l5.97,20.41h7.46l6.13-20.41c.32-1.09.63-2.22.93-3.36.3-1.14.61-2.58.93-4.31.28,1.69.57,3.13.85,4.31.28,1.18.58,2.3.9,3.36l6.13,20.41h7.04l-11.53-38.65,11.53-38.65h-7.04l-6.13,20.41ZM239.15,839.87l-8.25-28.13,8.25-28.13,8.46,28.13-8.46,28.13Z"/>
    </g>
  </g>
</svg>